<svg xmlns="http://www.w3.org/2000/svg" fill="none" viewBox="100 60 600 380"><defs><linearGradient id="editorGrad" x1="0%" x2="0%" y1="0%" y2="100%"><stop offset="0%" style="stop-color:#252540"/><stop offset="100%" style="stop-color:#1e1e32"/></linearGradient><linearGradient id="shieldGrad" x1="0%" x2="0%" y1="0%" y2="100%"><stop offset="0%" style="stop-color:#6366f1"/><stop offset="100%" style="stop-color:#8b5cf6"/></linearGradient><filter id="glow" width="200%" height="200%" x="-50%" y="-50%"><feGaussianBlur result="coloredBlur" stdDeviation="3"/><feMerge><feMergeNode in="coloredBlur"/><feMergeNode in="SourceGraphic"/></feMerge></filter><filter id="softGlow" width="200%" height="200%" x="-50%" y="-50%"><feGaussianBlur result="coloredBlur" stdDeviation="8"/><feMerge><feMergeNode in="coloredBlur"/><feMergeNode in="SourceGraphic"/></feMerge></filter><filter id="shadow" width="140%" height="140%" x="-20%" y="-20%"><feDropShadow dx="0" dy="4" flood-color="#000" flood-opacity=".4" stdDeviation="12"/></filter></defs><g filter="url(#shadow)" transform="translate(100, 60)"><rect width="600" height="380" fill="url(#editorGrad)" stroke="#3f3f5f" stroke-width="1" rx="12"/><rect width="600" height="40" fill="#2d2d44" rx="12"/><rect width="600" height="12" y="28" fill="#2d2d44"/><circle cx="24" cy="20" r="6" fill="#ff5f57"/><circle cx="48" cy="20" r="6" fill="#ffbd2e"/><circle cx="72" cy="20" r="6" fill="#28ca41"/><rect width="120" height="30" x="100" y="10" fill="#252540" rx="6"/><text x="130" y="30" fill="#9ca3af" font-family="SF Mono, Monaco, monospace" font-size="11">server.ts</text><rect width="45" height="340" x="0" y="40" fill="#1a1a2e" rx="0"/><g fill="#4b5563" font-family="SF Mono, Monaco, monospace" font-size="12"><text x="20" y="72">12</text><text x="20" y="96">13</text><text x="20" y="120">14</text><text x="20" y="144">15</text><text x="20" y="168">16</text><text x="20" y="192">17</text><text x="20" y="216">18</text><text x="20" y="240">19</text><text x="20" y="264">20</text><text x="20" y="288">21</text><text x="20" y="312">22</text></g><g font-family="SF Mono, Monaco, monospace" font-size="12"><text x="55" y="72" fill="#c792ea">async</text><text x="100" y="72" fill="#82aaff">handleChat</text><text x="185" y="72" fill="#89ddff">(</text><text x="193" y="72" fill="#f78c6c">req</text><text x="218" y="72" fill="#89ddff">)</text><text x="226" y="72" fill="#89ddff">{</text><text x="65" y="96" fill="#c792ea">const</text><text x="108" y="96" fill="#fff">message</text><text x="168" y="96" fill="#89ddff">=</text><text x="182" y="96" fill="#f78c6c">req</text><text x="205" y="96" fill="#89ddff">.</text><text x="212" y="96" fill="#fff">body</text><text x="242" y="96" fill="#89ddff">.</text><text x="249" y="96" fill="#fff">message</text><text x="309" y="96" fill="#89ddff">;</text><rect width="500" height="22" x="50" y="105" fill="#f59e0b" opacity=".15" rx="2"/><rect width="3" height="22" x="50" y="105" fill="#f59e0b" rx="1"/><text x="65" y="120" fill="#c792ea">const</text><text x="108" y="120" fill="#fff">response</text><text x="172" y="120" fill="#89ddff">=</text><text x="186" y="120" fill="#c792ea">await</text><text x="228" y="120" fill="#82aaff">llm</text><text x="252" y="120" fill="#89ddff">.</text><text x="259" y="120" fill="#82aaff">complete</text><text x="320" y="120" fill="#89ddff">(</text><text x="328" y="120" fill="#fff">message</text><text x="388" y="120" fill="#89ddff">);</text><text x="55" y="144" fill="#89ddff">}</text><text x="55" y="168" fill="#c792ea">const</text><text x="98" y="168" fill="#fff">tools</text><text x="132" y="168" fill="#89ddff">=</text><text x="146" y="168" fill="#89ddff">[</text><rect width="500" height="22" x="50" y="177" fill="#ef4444" opacity=".15" rx="2"/><rect width="3" height="22" x="50" y="177" fill="#ef4444" rx="1"/><text x="65" y="192" fill="#82aaff">readFileTool</text><text x="155" y="192" fill="#89ddff">,</text><rect width="500" height="22" x="50" y="201" fill="#ef4444" opacity=".15" rx="2"/><rect width="3" height="22" x="50" y="201" fill="#ef4444" rx="1"/><text x="65" y="216" fill="#82aaff">listDirectoryTool</text><text x="55" y="240" fill="#89ddff">];</text><text x="55" y="264" fill="#546e7a">// Execute with tools</text><text x="55" y="288" fill="#82aaff">executeAgent</text><text x="145" y="288" fill="#89ddff">(</text><text x="153" y="288" fill="#fff">tools</text><text x="188" y="288" fill="#89ddff">);</text></g><g filter="url(#glow)" transform="translate(320, 85)"><rect width="260" height="50" fill="#1e1e32" stroke="#f59e0b" stroke-width="1.5" rx="8"/><circle cx="20" cy="25" r="10" fill="#f59e0b"/><text x="16" y="30" fill="#1e1e32" font-family="Arial" font-size="14" font-weight="bold">!</text><text x="40" y="22" fill="#fbbf24" font-family="system-ui" font-size="11" font-weight="600">Prompt Injection Risk</text><text x="40" y="38" fill="#9ca3af" font-family="system-ui" font-size="10">Untrusted input passed to LLM</text></g><g filter="url(#glow)" transform="translate(180, 235)"><rect width="280" height="50" fill="#1e1e32" stroke="#ef4444" stroke-width="1.5" rx="8"/><circle cx="20" cy="25" r="10" fill="#ef4444"/><path fill="#1e1e32" d="M16 20 L24 20 L20 30 Z"/><text x="40" y="22" fill="#f87171" font-family="system-ui" font-size="11" font-weight="600">Unrestricted Filesystem Access</text><text x="40" y="38" fill="#9ca3af" font-family="system-ui" font-size="10">LLM tools lack path restrictions</text></g><rect width="600" height="40" x="0" y="340" fill="#1a1a2e" rx="0"/><rect width="600" height="1" x="0" y="340" fill="#3f3f5f"/><text x="20" y="365" fill="#9ca3af" font-family="system-ui" font-size="12">Problems</text><rect width="20" height="18" x="82" y="351" fill="#ef4444" rx="9"/><text x="92" y="360" fill="#fff" dominant-baseline="central" font-family="system-ui" font-size="11" font-weight="bold" text-anchor="middle">2</text><rect width="20" height="18" x="108" y="351" fill="#f59e0b" rx="9"/><text x="118" y="360" fill="#1e1e32" dominant-baseline="central" font-family="system-ui" font-size="11" font-weight="bold" text-anchor="middle">1</text></g></svg>