<svg xmlns="http://www.w3.org/2000/svg" viewBox="0 0 800 600"><circle cx="400" cy="300" r="300" fill="none" stroke="#3182CE" stroke-dasharray="15 10" stroke-width="5"/><g transform="translate(400, 100)"><rect width="100" height="120" x="-50" y="-60" fill="#4a5568" rx="5" ry="5"/><rect width="90" height="25" x="-45" y="-55" fill="#2d3748" rx="2" ry="2"/><rect width="90" height="25" x="-45" y="-25" fill="#2d3748" rx="2" ry="2"/><rect width="90" height="25" x="-45" y="5" fill="#2d3748" rx="2" ry="2"/><rect width="90" height="20" x="-45" y="35" fill="#2d3748" rx="2" ry="2"/><circle cx="-35" cy="-42.5" r="3" fill="#48bb78"/><circle cx="-35" cy="-12.5" r="3" fill="#48bb78"/><circle cx="-35" cy="17.5" r="3" fill="#f56565"/><circle cx="-35" cy="45" r="3" fill="#48bb78"/><rect width="5" height="115" x="-55" y="-55" fill="#718096"/><rect width="5" height="115" x="50" y="-55" fill="#718096"/><text x="0" y="90" fill="#2d3748" font-family="Arial, sans-serif" font-size="18" font-weight="bold" text-anchor="middle">On-Prem</text></g><g transform="translate(250, 400)"><rect width="120" height="100" x="-60" y="-60" fill="#2d3748" rx="10" ry="10"/><rect width="100" height="80" x="-50" y="-50" fill="#1a202c" rx="5" ry="5"/><text x="0" y="-20" fill="#48bb78" font-family="monospace" font-size="18" text-anchor="middle">$_</text><text x="0" y="80" fill="#2d3748" font-family="Arial, sans-serif" font-size="18" font-weight="bold" text-anchor="middle">Local</text></g><g transform="translate(550, 400)"><path fill="#4299e1" d="M0,-50 C-40,-50 -50,-20 -40,0 C-60,0 -60,40 -30,50 C-20,70 20,70 30,50 C70,60 70,20 50,10 C60,-30 30,-50 0,-50"/><line x1="-15" x2="15" y1="0" y2="0" stroke="#f7fafc" stroke-width="3"/><line x1="-15" x2="15" y1="10" y2="10" stroke="#f7fafc" stroke-width="3"/><line x1="-15" x2="0" y1="20" y2="20" stroke="#f7fafc" stroke-width="3"/><text x="0" y="90" fill="#2d3748" font-family="Arial, sans-serif" font-size="18" font-weight="bold" text-anchor="middle">Cloud</text></g></svg>