<svg xmlns="http://www.w3.org/2000/svg" viewBox="0 0 1000 450"><rect width="1000" height="450" fill="#f8f9fa"/><defs><marker id="arrowhead" markerHeight="7" markerWidth="10" orient="auto" refX="9" refY="3.5"><polygon fill="#4a5568" points="0 0 10 3.5 0 7"/></marker><filter id="shadow" width="140%" height="140%" x="-20%" y="-20%"><feGaussianBlur in="SourceAlpha" stdDeviation="3"/><feOffset dx="2" dy="2"/><feComponentTransfer><feFuncA slope=".3" type="linear"/></feComponentTransfer><feMerge><feMergeNode/><feMergeNode in="SourceGraphic"/></feMerge></filter></defs><rect width="260" height="340" x="20" y="40" fill="#fff" stroke="#2b6cb0" stroke-width="1" opacity=".3" rx="8"/><rect width="260" height="340" x="370" y="40" fill="#fff" stroke="#2b6cb0" stroke-width="1" opacity=".3" rx="8"/><rect width="260" height="340" x="720" y="40" fill="#fff" stroke="#2b6cb0" stroke-width="1" opacity=".3" rx="8"/><rect width="260" height="40" x="20" y="40" fill="#1a365d" rx="8"/><rect width="260" height="40" x="370" y="40" fill="#1a365d" rx="8"/><rect width="260" height="40" x="720" y="40" fill="#1a365d" rx="8"/><text x="150" y="65" fill="#fff" font-family="Arial" font-size="16" font-weight="bold" text-anchor="middle">DEVELOPMENT PHASE</text><text x="500" y="65" fill="#fff" font-family="Arial" font-size="16" font-weight="bold" text-anchor="middle">EVALUATION PHASE</text><text x="850" y="65" fill="#fff" font-family="Arial" font-size="16" font-weight="bold" text-anchor="middle">PRODUCTION PHASE</text><rect width="200" height="100" x="50" y="180" fill="#fff" stroke="#2b6cb0" stroke-width="2" filter="shadow" rx="10"/><text x="150" y="220" fill="#2b6cb0" font-family="Arial" font-size="16" font-weight="bold" text-anchor="middle">Development</text><text x="150" y="245" fill="#4a5568" font-family="Arial" font-size="14" text-anchor="middle">Prompts + Control Logic</text><rect width="200" height="100" x="400" y="180" fill="#fff" stroke="#2b6cb0" stroke-width="2" filter="shadow" rx="10"/><text x="500" y="220" fill="#2b6cb0" font-family="Arial" font-size="16" font-weight="bold" text-anchor="middle">Validation</text><text x="500" y="245" fill="#4a5568" font-family="Arial" font-size="14" text-anchor="middle">Automated Test Cases</text><rect width="200" height="100" x="750" y="180" fill="#fff" stroke="#2b6cb0" stroke-width="2" filter="shadow" rx="10"/><text x="850" y="220" fill="#2b6cb0" font-family="Arial" font-size="16" font-weight="bold" text-anchor="middle">Production</text><text x="850" y="245" fill="#4a5568" font-family="Arial" font-size="14" text-anchor="middle">User Interaction</text><path fill="none" stroke="#4a5568" stroke-width="2" marker-end="url(#arrowhead)" d="M250 210 C300 210 350 210 400 210"/><text x="325" y="200" fill="#4a5568" font-family="Arial" font-size="12" text-anchor="middle">Improvements</text><path fill="none" stroke="#4a5568" stroke-width="2" marker-end="url(#arrowhead)" d="M600 210 C650 210 700 210 750 210"/><text x="675" y="200" fill="#4a5568" font-family="Arial" font-size="12" text-anchor="middle">Deploy</text><path fill="none" stroke="#4a5568" stroke-width="2" marker-end="url(#arrowhead)" d="M750 250 C700 250 650 250 600 250"/><text x="675" y="270" fill="#4a5568" font-family="Arial" font-size="12" text-anchor="middle">Feedback</text><path fill="none" stroke="#4a5568" stroke-width="2" marker-end="url(#arrowhead)" d="M400 250 C350 250 300 250 250 250"/><text x="325" y="270" fill="#4a5568" font-family="Arial" font-size="12" text-anchor="middle">Regressions</text></svg>