<svg xmlns="http://www.w3.org/2000/svg" viewBox="0 0 800 600"><defs><linearGradient id="bgGradient" x1="0%" x2="100%" y1="0%" y2="100%"><stop offset="0%" style="stop-color:#f9f9f9;stop-opacity:1"/><stop offset="100%" style="stop-color:#e6e6e6;stop-opacity:1"/></linearGradient><filter id="dropShadow"><feDropShadow dx="2" dy="2" flood-opacity=".3" stdDeviation="1"/></filter></defs><rect width="800" height="600" fill="url(#bgGradient)"/><text x="400" y="50" fill="#333" font-family="Arial, sans-serif" font-size="28" font-weight="bold" text-anchor="middle">AI Bias</text><circle cx="400" cy="300" r="80" fill="#3498db" filter="url(#dropShadow)" opacity=".8"/><text x="400" y="305" fill="#fff" font-family="Arial, sans-serif" font-size="20" font-weight="bold" text-anchor="middle">LLM</text><g font-family="Arial, sans-serif" font-size="14" font-weight="bold"><circle cx="200" cy="200" r="60" fill="#e74c3c" filter="url(#dropShadow)" opacity=".8"/><text x="200" y="195" fill="#fff" text-anchor="middle">Gender</text><text x="200" y="215" fill="#fff" text-anchor="middle">Stereotypes</text><path fill="none" stroke="#e74c3c" stroke-width="2" d="M260 230 Q330 265 360 290"/><circle cx="600" cy="200" r="60" fill="#2ecc71" filter="url(#dropShadow)" opacity=".8"/><text x="600" y="195" fill="#fff" text-anchor="middle">Racial</text><text x="600" y="215" fill="#fff" text-anchor="middle">Prejudices</text><path fill="none" stroke="#2ecc71" stroke-width="2" d="M540 230 Q470 265 440 290"/><circle cx="150" cy="400" r="60" fill="#f39c12" filter="url(#dropShadow)" opacity=".8"/><text x="150" y="395" fill="#fff" text-anchor="middle">Political</text><text x="150" y="415" fill="#fff" text-anchor="middle">Preferences</text><path fill="none" stroke="#f39c12" stroke-width="2" d="M210 370 Q305 335 360 310"/><circle cx="650" cy="400" r="60" fill="#9b59b6" filter="url(#dropShadow)" opacity=".8"/><text x="650" y="395" fill="#fff" text-anchor="middle">Cultural</text><text x="650" y="415" fill="#fff" text-anchor="middle">Bias</text><path fill="none" stroke="#9b59b6" stroke-width="2" d="M590 370 Q495 335 440 310"/><circle cx="300" cy="500" r="60" fill="#1abc9c" filter="url(#dropShadow)" opacity=".8"/><text x="300" y="495" fill="#fff" text-anchor="middle">Age Group</text><text x="300" y="515" fill="#fff" text-anchor="middle">Stereotypes</text><path fill="none" stroke="#1abc9c" stroke-width="2" d="M340 445 Q370 375 380 340"/><circle cx="500" cy="500" r="60" fill="#34495e" filter="url(#dropShadow)" opacity=".8"/><text x="500" y="495" fill="#fff" text-anchor="middle">Economic</text><text x="500" y="515" fill="#fff" text-anchor="middle">Assumptions</text><path fill="none" stroke="#34495e" stroke-width="2" d="M460 445 Q430 375 420 340"/></g></svg>