<svg xmlns="http://www.w3.org/2000/svg" viewBox="0 0 800 550"><rect width="800" height="550" fill="#f0f8ff"/><text x="400" y="40" fill="#00F" font-family="Arial, sans-serif" font-size="24" font-weight="bold" text-anchor="middle">Privilege Escalation in LLM Agent Systems</text><circle cx="100" cy="275" r="40" fill="orange"/><text x="100" y="340" font-family="Arial, sans-serif" font-size="16" text-anchor="middle">Regular User</text><rect width="100" height="400" x="350" y="100" fill="indigo" rx="10" ry="10"/><text x="400" y="130" fill="#fff" font-family="Arial, sans-serif" font-size="16" text-anchor="middle">LLM Agent</text><rect width="150" height="400" x="600" y="100" fill="#2F4F4F"/><text x="675" y="130" fill="#fff" font-family="Arial, sans-serif" font-size="16" text-anchor="middle">Server</text><rect width="130" height="60" x="610" y="150" fill="#32CD32" rx="5" ry="5"/><text x="675" y="185" fill="#fff" font-family="Arial, sans-serif" font-size="14" text-anchor="middle">View Data</text><rect width="130" height="60" x="610" y="220" fill="gold" rx="5" ry="5"/><text x="675" y="255" fill="#000" font-family="Arial, sans-serif" font-size="14" text-anchor="middle">Edit Data</text><rect width="130" height="60" x="610" y="290" fill="#FF4500" rx="5" ry="5"/><text x="675" y="325" fill="#fff" font-family="Arial, sans-serif" font-size="14" text-anchor="middle">Admin</text><path fill="none" stroke="navy" stroke-width="2" marker-end="url(#arrowheadRight)" marker-start="url(#arrowheadLeft)" d="M 140 275 Q 245 210 350 180"/><path fill="none" stroke="#8B0000" stroke-dasharray="5 5" stroke-width="2" marker-end="url(#arrowheadRight)" d="M 140 275 Q 245 320 350 250"/><path fill="none" stroke="#8B0000" stroke-dasharray="5 5" stroke-width="2" marker-end="url(#arrowheadRight)" d="M 140 275 Q 245 390 350 320"/><path fill="none" stroke="navy" stroke-width="2" marker-end="url(#arrowheadRight)" marker-start="url(#arrowheadLeft)" d="M 450 250 L 600 250"/><text x="245" y="200" font-family="Arial, sans-serif" font-size="14" text-anchor="middle">Authorized: viewUserData()</text><text x="245" y="305" fill="#8B0000" font-family="Arial, sans-serif" font-size="14" text-anchor="middle">Exploit: editUserData()</text><text x="245" y="400" fill="#8B0000" font-family="Arial, sans-serif" font-size="14" text-anchor="middle">Exploit: deleteUser()</text><text x="525" y="230" font-family="Arial, sans-serif" font-size="14" text-anchor="middle">Execute functions</text><defs><marker id="arrowheadRight" markerHeight="4" markerWidth="5" orient="auto" refX="0" refY="2"><polygon points="0 0 5 2 0 4"/></marker><marker id="arrowheadLeft" markerHeight="4" markerWidth="5" orient="auto" refX="5" refY="2"><polygon points="5 0 0 2 5 4"/></marker></defs></svg>