<svg xmlns="http://www.w3.org/2000/svg" viewBox="0 0 800 550"><rect width="800" height="600" fill="#f8fafc"/><g stroke="#e2e8f0" stroke-width="1"><path d="M 50 50 L 750 50"/><path d="M 50 550 L 750 550"/><path d="M 50 50 L 50 550"/><path d="M 750 50 L 750 550"/></g><g transform="translate(100, 100)"><rect width="240" height="400" fill="#f1f5f9" stroke="#94a3b8" stroke-width="2" rx="8"/><text x="120" y="40" fill="#1e293b" font-family="Arial" font-size="16" font-weight="bold" text-anchor="middle">Core Agent</text><rect width="200" height="80" x="20" y="60" fill="#dbeafe" stroke="#3b82f6" stroke-width="2" rx="6"/><text x="120" y="100" fill="#1e293b" font-family="Arial" font-size="14" text-anchor="middle">Reasoning Engine</text><text x="120" y="120" fill="#64748b" font-family="Arial" font-size="12" text-anchor="middle">Planning &amp; Decision Making</text><rect width="200" height="80" x="20" y="160" fill="#fee2e2" stroke="#ef4444" stroke-width="2" rx="6"/><text x="120" y="200" fill="#1e293b" font-family="Arial" font-size="14" text-anchor="middle">Memory System</text><text x="120" y="220" fill="#64748b" font-family="Arial" font-size="12" text-anchor="middle">Short &amp; Long Term Storage</text><rect width="200" height="80" x="20" y="260" fill="#d1fae5" stroke="#10b981" stroke-width="2" rx="6"/><text x="120" y="300" fill="#1e293b" font-family="Arial" font-size="14" text-anchor="middle">Tool Integration</text><text x="120" y="320" fill="#64748b" font-family="Arial" font-size="12" text-anchor="middle">APIs &amp; Function Calls</text></g><g transform="translate(460, 100)"><rect width="240" height="400" fill="#f1f5f9" stroke="#94a3b8" stroke-width="2" rx="8"/><text x="120" y="40" fill="#1e293b" font-family="Arial" font-size="16" font-weight="bold" text-anchor="middle">External Systems</text><rect width="200" height="80" x="20" y="60" fill="#fae8ff" stroke="#d946ef" stroke-width="2" rx="6"/><text x="120" y="100" fill="#1e293b" font-family="Arial" font-size="14" text-anchor="middle">Knowledge Base</text><text x="120" y="120" fill="#64748b" font-family="Arial" font-size="12" text-anchor="middle">Vector &amp; Traditional DBs</text><rect width="200" height="80" x="20" y="160" fill="#fff7ed" stroke="#f97316" stroke-width="2" rx="6"/><text x="120" y="200" fill="#1e293b" font-family="Arial" font-size="14" text-anchor="middle">API Gateway</text><text x="120" y="220" fill="#64748b" font-family="Arial" font-size="12" text-anchor="middle">External Services</text><rect width="200" height="80" x="20" y="260" fill="#f0fdf4" stroke="#22c55e" stroke-width="2" rx="6"/><text x="120" y="300" fill="#1e293b" font-family="Arial" font-size="14" text-anchor="middle">Security Layer</text><text x="120" y="320" fill="#64748b" font-family="Arial" font-size="12" text-anchor="middle">Access Control &amp; Monitoring</text></g><g fill="none" stroke="#94a3b8" stroke-width="2"><path stroke-dasharray="6 3" d="M 340 180 L 460 180"/><path stroke-dasharray="6 3" d="M 340 280 L 460 280"/><path stroke-dasharray="6 3" d="M 340 380 L 460 380"/></g></svg>