<svg xmlns="http://www.w3.org/2000/svg" viewBox="0 0 800 600"><rect width="800" height="600" fill="#fff"/><text x="400" y="50" font-family="Arial" font-size="24" font-weight="bold" text-anchor="middle">Best-of-N Jailbreaking Cycle</text><circle cx="400" cy="325" r="200" fill="none" stroke="#ddd" stroke-dasharray="5 5" stroke-width="2"/><g transform="translate(400,125)"><rect width="180" height="60" x="-90" y="-30" fill="#e6f3ff" stroke="#2196f3" stroke-width="2" rx="5"/><text x="0" y="5" font-family="Arial" font-size="14" text-anchor="middle">Original Request</text></g><g transform="translate(650,225)"><rect width="180" height="80" x="-90" y="-40" fill="#fff3e6" stroke="#ff9800" stroke-width="2" rx="5"/><text x="0" y="-20" font-family="Arial" font-size="14" text-anchor="middle">Apply Augmentations</text><text x="0" y="0" font-family="Arial" font-size="12" text-anchor="middle">• Random capitalization</text><text x="0" y="20" font-family="Arial" font-size="12" text-anchor="middle">• Character scrambling</text><text x="0" y="40" font-family="Arial" font-size="12" text-anchor="middle">• ASCII noise</text></g><g transform="translate(650,425)"><rect width="180" height="60" x="-90" y="-30" fill="#e8f5e9" stroke="#4caf50" stroke-width="2" rx="5"/><text x="0" y="5" font-family="Arial" font-size="14" text-anchor="middle">Language Model</text></g><g transform="translate(400,525)"><rect width="180" height="60" x="-90" y="-30" fill="#fce4ec" stroke="#e91e63" stroke-width="2" rx="5"/><text x="0" y="5" font-family="Arial" font-size="14" text-anchor="middle">Response</text></g><g transform="translate(150,425)"><rect width="180" height="60" x="-90" y="-30" fill="#f3e5f5" stroke="#9c27b0" stroke-width="2" rx="5"/><text x="0" y="5" font-family="Arial" font-size="14" text-anchor="middle">Harm Classifier</text></g><g transform="translate(150,225)"><rect width="180" height="80" x="-90" y="-40" fill="#f5f5f5" stroke="#666" stroke-width="2" rx="5"/><text x="0" y="-15" font-family="Arial" font-size="14" text-anchor="middle">Sample Counter</text><text x="0" y="15" font-family="Arial" font-size="14" font-weight="bold" text-anchor="middle">N remaining</text></g><defs><marker id="arrowhead" markerHeight="7" markerWidth="10" orient="auto" refX="9" refY="3.5"><polygon fill="#666" points="0 0 10 3.5 0 7"/></marker></defs><g fill="none" stroke="#666" stroke-width="2"><path marker-end="url(#arrowhead)" d="M 490 125 Q 600 125 650 185"/><path marker-end="url(#arrowhead)" d="M 650 265 L 650 395"/><path marker-end="url(#arrowhead)" d="M 560 425 Q 500 425 400 495"/><path marker-end="url(#arrowhead)" d="M 310 525 Q 200 525 150 455"/><path marker-end="url(#arrowhead)" d="M 150 395 L 150 265"/><path marker-end="url(#arrowhead)" d="M 240 225 Q 400 225 560 225"/></g><text x="400" y="205" fill="#666" font-family="Arial" font-size="12" text-anchor="middle">If N &gt; 0 and not harmful</text><text x="400" y="245" fill="#666" font-family="Arial" font-size="12" text-anchor="middle">Try next variation</text></svg>