<svg xmlns="http://www.w3.org/2000/svg" viewBox="0 0 800 320"><rect width="800" height="320" fill="#fff"/><line x1="155" x2="645" y1="130" y2="130" stroke="#e2e8f0" stroke-width="2"/><g transform="translate(70, 70)"><rect width="110" height="120" x="0" y="0" fill="#f8fafc" stroke="#cbd5e1" stroke-width="1.5" rx="4"/><text x="55" y="28" fill="#1e293b" font-family="Inter, system-ui, sans-serif" font-size="11" font-weight="600" text-anchor="middle">Model Source</text><line x1="10" x2="100" y1="40" y2="40" stroke="#e2e8f0" stroke-width="1"/><text x="55" y="62" fill="#64748b" font-family="Inter, system-ui, sans-serif" font-size="10" text-anchor="middle">HuggingFace</text><text x="55" y="78" fill="#64748b" font-family="Inter, system-ui, sans-serif" font-size="10" text-anchor="middle">Vendor</text><text x="55" y="94" fill="#64748b" font-family="Inter, system-ui, sans-serif" font-size="10" text-anchor="middle">Internal ML</text></g><path stroke="#94a3b8" stroke-width="1.5" d="M185 130 L210 130"/><polygon fill="#94a3b8" points="210 130 203 126 203 134"/><g transform="translate(220, 50)"><rect width="130" height="160" x="0" y="0" fill="#f5f3ff" stroke="#8b5cf6" stroke-width="1.5" rx="4"/><text x="65" y="26" fill="#6d28d9" font-family="Inter, system-ui, sans-serif" font-size="11" font-weight="600" text-anchor="middle">Static Analysis</text><line x1="10" x2="120" y1="38" y2="38" stroke="#ddd6fe" stroke-width="1"/><g fill="#475569" font-family="Inter, system-ui, sans-serif" font-size="10"><text x="16" y="60">Pickle payloads</text><text x="16" y="78">Executables</text><text x="16" y="96">Credentials</text><text x="16" y="114">Backdoors</text></g><rect width="102" height="18" x="14" y="130" fill="#ede9fe" rx="2"/><text x="65" y="143" fill="#7c3aed" font-family="Inter, system-ui, sans-serif" font-size="9" font-weight="500" text-anchor="middle">ModelAudit</text></g><path stroke="#94a3b8" stroke-width="1.5" d="M355 130 L380 130"/><polygon fill="#94a3b8" points="380 130 373 126 373 134"/><g transform="translate(390, 50)"><rect width="130" height="160" x="0" y="0" fill="#ecfdf5" stroke="#10b981" stroke-width="1.5" rx="4"/><text x="65" y="26" fill="#047857" font-family="Inter, system-ui, sans-serif" font-size="11" font-weight="600" text-anchor="middle">Dynamic Analysis</text><line x1="10" x2="120" y1="38" y2="38" stroke="#a7f3d0" stroke-width="1"/><g fill="#475569" font-family="Inter, system-ui, sans-serif" font-size="10"><text x="16" y="60">Model drift</text><text x="16" y="78">Safety regression</text><text x="16" y="96">Data poisoning</text><text x="16" y="114">Jailbreak testing</text></g><rect width="102" height="18" x="14" y="130" fill="#d1fae5" rx="2"/><text x="65" y="143" fill="#059669" font-family="Inter, system-ui, sans-serif" font-size="9" font-weight="500" text-anchor="middle">Red Team</text></g><path stroke="#94a3b8" stroke-width="1.5" d="M525 130 L550 130"/><polygon fill="#94a3b8" points="550 130 543 126 543 134"/><g transform="translate(560, 70)"><rect width="110" height="120" x="0" y="0" fill="#f8fafc" stroke="#cbd5e1" stroke-width="1.5" rx="4"/><text x="55" y="28" fill="#1e293b" font-family="Inter, system-ui, sans-serif" font-size="11" font-weight="600" text-anchor="middle">Production</text><line x1="10" x2="100" y1="40" y2="40" stroke="#e2e8f0" stroke-width="1"/><path fill="#dcfce7" stroke="#22c55e" stroke-width="1.5" d="M43 58 L55 52 L67 58 L67 76 C67 82 61 88 55 91 C49 88 43 82 43 76 Z"/><path fill="none" stroke="#22c55e" stroke-linecap="round" stroke-linejoin="round" stroke-width="2" d="M50 72 L53 75 L61 67"/><text x="55" y="108" fill="#16a34a" font-family="Inter, system-ui, sans-serif" font-size="10" font-weight="500" text-anchor="middle">Verified</text></g><g><text x="285" y="20" fill="#6d28d9" font-family="Inter, system-ui, sans-serif" font-size="10" font-weight="500" text-anchor="middle" transform="translate(0, 250)">Code Execution Risks</text><text x="285" y="36" fill="#64748b" font-family="Inter, system-ui, sans-serif" font-size="9" text-anchor="middle" transform="translate(0, 250)">Scan artifacts before deployment</text><text x="455" y="20" fill="#047857" font-family="Inter, system-ui, sans-serif" font-size="10" font-weight="500" text-anchor="middle" transform="translate(0, 250)">Behavioral Risks</text><text x="455" y="36" fill="#64748b" font-family="Inter, system-ui, sans-serif" font-size="9" text-anchor="middle" transform="translate(0, 250)">Test inference behavior continuously</text></g></svg>