<svg xmlns="http://www.w3.org/2000/svg" viewBox="0 0 800 300"><rect width="800" height="300" fill="#fff"/><line x1="150" x2="650" y1="115" y2="115" stroke="#e2e8f0" stroke-width="2"/><g transform="translate(60, 50)"><rect width="120" height="130" fill="#f0fdf4" stroke="#22c55e" stroke-width="1.5" rx="4"/><text x="60" y="24" fill="#15803d" font-family="Inter, system-ui, sans-serif" font-size="11" font-weight="600" text-anchor="middle">Baseline</text><line x1="10" x2="110" y1="36" y2="36" stroke="#bbf7d0"/><g transform="translate(35, 46)"><rect width="12" height="20" x="0" y="20" fill="#22c55e" rx="1"/><rect width="12" height="28" x="18" y="12" fill="#22c55e" rx="1"/><rect width="12" height="24" x="36" y="16" fill="#22c55e" rx="1"/></g><text x="60" y="100" fill="#64748b" font-family="Inter, system-ui, sans-serif" font-size="10" text-anchor="middle">Initial red team</text><rect width="80" height="16" x="20" y="108" fill="#dcfce7" rx="2"/><text x="60" y="120" fill="#16a34a" font-family="Inter, system-ui, sans-serif" font-size="9" font-weight="500" text-anchor="middle">ASR: 8%</text></g><path stroke="#94a3b8" stroke-width="1.5" d="M185 115 L220 115"/><polygon fill="#94a3b8" points="220 115 213 111 213 119"/><g transform="translate(230, 50)"><rect width="130" height="130" fill="#f8fafc" stroke="#cbd5e1" stroke-width="1.5" rx="4"/><text x="65" y="24" fill="#1e293b" font-family="Inter, system-ui, sans-serif" font-size="11" font-weight="600" text-anchor="middle">Monitor</text><line x1="10" x2="120" y1="36" y2="36" stroke="#e2e8f0"/><g transform="translate(20, 52)"><line x1="0" x2="90" y1="12" y2="12" stroke="#cbd5e1" stroke-width="1.5"/><circle cx="0" cy="12" r="5" fill="#22c55e"/><circle cx="30" cy="12" r="5" fill="#94a3b8"/><circle cx="60" cy="12" r="5" fill="#94a3b8"/><circle cx="90" cy="12" r="5" fill="#f59e0b" stroke="#f59e0b"/><text x="0" y="32" fill="#64748b" font-family="Inter, system-ui, sans-serif" font-size="8" text-anchor="middle">T0</text><text x="90" y="32" fill="#b45309" font-family="Inter, system-ui, sans-serif" font-size="8" text-anchor="middle">Tn</text></g><text x="65" y="100" fill="#64748b" font-family="Inter, system-ui, sans-serif" font-size="10" text-anchor="middle">Scheduled re-tests</text><rect width="100" height="16" x="15" y="108" fill="#fef3c7" rx="2"/><text x="65" y="120" fill="#a16207" font-family="Inter, system-ui, sans-serif" font-size="9" font-weight="500" text-anchor="middle">ASR: 8% → 14%</text></g><path stroke="#94a3b8" stroke-width="1.5" d="M365 115 L400 115"/><polygon fill="#94a3b8" points="400 115 393 111 393 119"/><g transform="translate(410, 50)"><rect width="120" height="130" fill="#eff6ff" stroke="#3b82f6" stroke-width="1.5" rx="4"/><text x="60" y="24" fill="#1d4ed8" font-family="Inter, system-ui, sans-serif" font-size="11" font-weight="600" text-anchor="middle">Compare</text><line x1="10" x2="110" y1="36" y2="36" stroke="#bfdbfe"/><g transform="translate(20, 46)"><rect width="35" height="40" fill="#dbeafe" stroke="#3b82f6" rx="2"/><rect width="35" height="40" x="45" fill="#dbeafe" stroke="#3b82f6" rx="2"/><text x="17" y="16" fill="#1d4ed8" font-family="Inter, system-ui, sans-serif" font-size="9" font-weight="500" text-anchor="middle">Base</text><text x="17" y="32" fill="#3b82f6" font-family="Inter, system-ui, sans-serif" font-size="10" text-anchor="middle">8%</text><text x="62" y="16" fill="#1d4ed8" font-family="Inter, system-ui, sans-serif" font-size="9" font-weight="500" text-anchor="middle">Now</text><text x="62" y="32" fill="#3b82f6" font-family="Inter, system-ui, sans-serif" font-size="10" text-anchor="middle">14%</text></g><text x="60" y="100" fill="#64748b" font-family="Inter, system-ui, sans-serif" font-size="10" text-anchor="middle">vs threshold</text><rect width="80" height="16" x="20" y="108" fill="#dbeafe" rx="2"/><text x="60" y="120" fill="#1d4ed8" font-family="Inter, system-ui, sans-serif" font-size="9" font-weight="500" text-anchor="middle">Δ +6%</text></g><path stroke="#94a3b8" stroke-width="1.5" d="M535 115 L570 115"/><polygon fill="#94a3b8" points="570 115 563 111 563 119"/><g transform="translate(580, 50)"><rect width="120" height="130" fill="#f8fafc" stroke="#cbd5e1" stroke-width="1.5" rx="4"/><text x="60" y="24" fill="#1e293b" font-family="Inter, system-ui, sans-serif" font-size="11" font-weight="600" text-anchor="middle">Outcome</text><line x1="10" x2="110" y1="36" y2="36" stroke="#e2e8f0"/><g transform="translate(15, 48)"><rect width="40" height="32" fill="#dcfce7" stroke="#22c55e" stroke-width="1" rx="2"/><path fill="none" stroke="#22c55e" stroke-linecap="round" stroke-linejoin="round" stroke-width="2" d="M12 16 L17 21 L28 10"/><text x="20" y="28" fill="#16a34a" font-family="Inter, system-ui, sans-serif" font-size="8" font-weight="500" text-anchor="middle">Pass</text></g><g transform="translate(65, 48)"><rect width="40" height="32" fill="#fee2e2" stroke="#ef4444" stroke-width="1" rx="2"/><path fill="none" stroke="#ef4444" stroke-linecap="round" stroke-width="2" d="M14 10 L26 22 M26 10 L14 22"/><text x="20" y="28" fill="#dc2626" font-family="Inter, system-ui, sans-serif" font-size="8" font-weight="500" text-anchor="middle">Drift</text></g><text x="60" y="100" fill="#64748b" font-family="Inter, system-ui, sans-serif" font-size="10" text-anchor="middle">CI gate or alert</text><rect width="80" height="16" x="20" y="108" fill="#f1f5f9" rx="2"/><text x="60" y="120" fill="#64748b" font-family="Inter, system-ui, sans-serif" font-size="9" text-anchor="middle">Investigate</text></g><g><text x="120" y="20" fill="#15803d" font-family="Inter, system-ui, sans-serif" font-size="10" font-weight="500" text-anchor="middle" transform="translate(0, 215)">Establish</text><text x="120" y="36" fill="#64748b" font-family="Inter, system-ui, sans-serif" font-size="9" text-anchor="middle" transform="translate(0, 215)">Security baseline</text><text x="295" y="20" fill="#475569" font-family="Inter, system-ui, sans-serif" font-size="10" font-weight="500" text-anchor="middle" transform="translate(0, 215)">Test Continuously</text><text x="295" y="36" fill="#64748b" font-family="Inter, system-ui, sans-serif" font-size="9" text-anchor="middle" transform="translate(0, 215)">Same tests over time</text><text x="470" y="20" fill="#1d4ed8" font-family="Inter, system-ui, sans-serif" font-size="10" font-weight="500" text-anchor="middle" transform="translate(0, 215)">Detect Changes</text><text x="470" y="36" fill="#64748b" font-family="Inter, system-ui, sans-serif" font-size="9" text-anchor="middle" transform="translate(0, 215)">Compare against baseline</text><text x="640" y="20" fill="#475569" font-family="Inter, system-ui, sans-serif" font-size="10" font-weight="500" text-anchor="middle" transform="translate(0, 215)">Respond</text><text x="640" y="36" fill="#64748b" font-family="Inter, system-ui, sans-serif" font-size="9" text-anchor="middle" transform="translate(0, 215)">Block deploy or alert</text></g></svg>