<svg xmlns="http://www.w3.org/2000/svg" viewBox="0 0 800 400"><defs><marker id="arrowhead" markerHeight="3" markerWidth="4" orient="auto" refX="2" refY="1.5"><polygon fill="#333" points="0 0 4 1.5 0 3"/></marker></defs><rect width="800" height="450" fill="#f0f0f0"/><text x="400" y="50" font-family="Arial, sans-serif" font-size="20" font-weight="bold" text-anchor="middle">Multi-turn Jailbreaks with Backtracking</text><g font-family="Arial, sans-serif"><text x="120" y="110" font-size="16" text-anchor="end">Attempt 1</text><circle cx="150" cy="105" r="15" fill="#4a90e2" stroke="#2a70c2" stroke-width="2"/><circle cx="230" cy="105" r="15" fill="#c6dcf7" stroke="#4a90e2" stroke-width="2"/><circle cx="310" cy="105" r="15" fill="#e74c3c" stroke="#c0392b" stroke-width="2"/><line x1="165" x2="215" y1="105" y2="105" stroke="#333" stroke-width="2" marker-end="url(#arrowhead)"/><line x1="245" x2="295" y1="105" y2="105" stroke="#333" stroke-width="2" marker-end="url(#arrowhead)"/><text x="120" y="170" font-size="16" text-anchor="end">Attempt 2</text><circle cx="150" cy="165" r="15" fill="#c6dcf7" stroke="#4a90e2" stroke-width="2"/><circle cx="230" cy="165" r="15" fill="#c6dcf7" stroke="#4a90e2" stroke-width="2"/><circle cx="310" cy="165" r="15" fill="#4a90e2" stroke="#2a70c2" stroke-width="2"/><circle cx="390" cy="165" r="15" fill="#c6dcf7" stroke="#4a90e2" stroke-width="2"/><circle cx="470" cy="165" r="15" fill="#e74c3c" stroke="#c0392b" stroke-width="2"/><line x1="165" x2="215" y1="165" y2="165" stroke="#333" stroke-dasharray="4" stroke-width="2" marker-end="url(#arrowhead)"/><line x1="245" x2="295" y1="165" y2="165" stroke="#333" stroke-dasharray="4" stroke-width="2" marker-end="url(#arrowhead)"/><line x1="325" x2="375" y1="165" y2="165" stroke="#333" stroke-width="2" marker-end="url(#arrowhead)"/><line x1="405" x2="455" y1="165" y2="165" stroke="#333" stroke-width="2" marker-end="url(#arrowhead)"/><text x="120" y="230" font-size="16" text-anchor="end">Attempt 3</text><circle cx="150" cy="225" r="15" fill="#c6dcf7" stroke="#4a90e2" stroke-width="2"/><circle cx="230" cy="225" r="15" fill="#c6dcf7" stroke="#4a90e2" stroke-width="2"/><circle cx="310" cy="225" r="15" fill="#c6dcf7" stroke="#4a90e2" stroke-width="2"/><circle cx="390" cy="225" r="15" fill="#c6dcf7" stroke="#4a90e2" stroke-width="2"/><circle cx="470" cy="225" r="15" fill="#e74c3c" stroke="#c0392b" stroke-width="2"/><line x1="165" x2="215" y1="225" y2="225" stroke="#333" stroke-dasharray="4" stroke-width="2" marker-end="url(#arrowhead)"/><line x1="245" x2="295" y1="225" y2="225" stroke="#333" stroke-dasharray="4" stroke-width="2" marker-end="url(#arrowhead)"/><line x1="325" x2="375" y1="225" y2="225" stroke="#333" stroke-dasharray="4" stroke-width="2" marker-end="url(#arrowhead)"/><line x1="405" x2="455" y1="225" y2="225" stroke="#333" stroke-width="2" marker-end="url(#arrowhead)"/><text x="120" y="290" font-size="16" text-anchor="end">Attempt 4</text><circle cx="150" cy="285" r="15" fill="#c6dcf7" stroke="#4a90e2" stroke-width="2"/><circle cx="230" cy="285" r="15" fill="#c6dcf7" stroke="#4a90e2" stroke-width="2"/><circle cx="310" cy="285" r="15" fill="#c6dcf7" stroke="#4a90e2" stroke-width="2"/><circle cx="390" cy="285" r="15" fill="#c6dcf7" stroke="#4a90e2" stroke-width="2"/><circle cx="470" cy="285" r="15" fill="#4a90e2" stroke="#2a70c2" stroke-width="2"/><circle cx="550" cy="285" r="15" fill="#c6dcf7" stroke="#4a90e2" stroke-width="2"/><circle cx="630" cy="285" r="15" fill="#e74c3c" stroke="#c0392b" stroke-width="2"/><line x1="165" x2="215" y1="285" y2="285" stroke="#333" stroke-dasharray="4" stroke-width="2" marker-end="url(#arrowhead)"/><line x1="245" x2="295" y1="285" y2="285" stroke="#333" stroke-dasharray="4" stroke-width="2" marker-end="url(#arrowhead)"/><line x1="325" x2="375" y1="285" y2="285" stroke="#333" stroke-dasharray="4" stroke-width="2" marker-end="url(#arrowhead)"/><line x1="405" x2="455" y1="285" y2="285" stroke="#333" stroke-dasharray="4" stroke-width="2" marker-end="url(#arrowhead)"/><line x1="485" x2="535" y1="285" y2="285" stroke="#333" stroke-width="2" marker-end="url(#arrowhead)"/><line x1="565" x2="615" y1="285" y2="285" stroke="#333" stroke-width="2" marker-end="url(#arrowhead)"/><text x="120" y="350" font-size="16" text-anchor="end">Attempt 5</text><circle cx="150" cy="345" r="15" fill="#c6dcf7" stroke="#4a90e2" stroke-width="2"/><circle cx="230" cy="345" r="15" fill="#c6dcf7" stroke="#4a90e2" stroke-width="2"/><circle cx="310" cy="345" r="15" fill="#c6dcf7" stroke="#4a90e2" stroke-width="2"/><circle cx="390" cy="345" r="15" fill="#c6dcf7" stroke="#4a90e2" stroke-width="2"/><circle cx="470" cy="345" r="15" fill="#c6dcf7" stroke="#4a90e2" stroke-width="2"/><circle cx="550" cy="345" r="15" fill="#c6dcf7" stroke="#4a90e2" stroke-width="2"/><circle cx="630" cy="345" r="15" fill="#4a90e2" stroke="#2a70c2" stroke-width="2"/><circle cx="710" cy="345" r="15" fill="#2ecc71" stroke="#27ae60" stroke-width="2"/><line x1="165" x2="215" y1="345" y2="345" stroke="#333" stroke-dasharray="4" stroke-width="2" marker-end="url(#arrowhead)"/><line x1="245" x2="295" y1="345" y2="345" stroke="#333" stroke-dasharray="4" stroke-width="2" marker-end="url(#arrowhead)"/><line x1="325" x2="375" y1="345" y2="345" stroke="#333" stroke-dasharray="4" stroke-width="2" marker-end="url(#arrowhead)"/><line x1="405" x2="455" y1="345" y2="345" stroke="#333" stroke-dasharray="4" stroke-width="2" marker-end="url(#arrowhead)"/><line x1="485" x2="535" y1="345" y2="345" stroke="#333" stroke-dasharray="4" stroke-width="2" marker-end="url(#arrowhead)"/><line x1="565" x2="615" y1="345" y2="345" stroke="#333" stroke-dasharray="4" stroke-width="2" marker-end="url(#arrowhead)"/><line x1="645" x2="695" y1="345" y2="345" stroke="#333" stroke-width="2" marker-end="url(#arrowhead)"/></g><g stroke="#e74c3c" stroke-dasharray="5 5" stroke-width="2" marker-end="url(#arrowhead)"><path fill="none" d="M 310 120 C 295 135 245 135 230 150"/><path fill="none" d="M 470 180 C 455 195 405 195 390 210"/><path fill="none" d="M 470 240 C 455 255 405 255 390 270"/><path fill="none" d="M 630 300 C 615 315 565 315 550 330"/></g></svg>