<svg xmlns="http://www.w3.org/2000/svg" width="800" height="400" viewBox="0 0 800 400"><defs><linearGradient id="bg-gradient" x1="0%" x2="100%" y1="0%" y2="100%"><stop offset="0%" style="stop-color:#1a1a2e;stop-opacity:1"/><stop offset="100%" style="stop-color:#16213e;stop-opacity:1"/></linearGradient><filter id="glow" width="200%" height="200%" x="-50%" y="-50%"><feGaussianBlur result="coloredBlur" stdDeviation="2"/><feMerge><feMergeNode in="coloredBlur"/><feMergeNode in="SourceGraphic"/></feMerge></filter></defs><rect width="800" height="400" fill="url(#bg-gradient)"/><text x="400" y="50" fill="#fff" font-family="system-ui, -apple-system, BlinkMacSystemFont, 'Segoe UI', Roboto, Oxygen, Ubuntu, Cantarell, sans-serif" font-size="24" font-weight="bold" text-anchor="middle">OWASP LLM Top 10</text><circle cx="400" cy="200" r="30" fill="#4a90e2" opacity=".3"/><circle cx="400" cy="200" r="28" fill="none" stroke="#4a90e2" stroke-width="2"/><g id="vulnerabilities" font-family="system-ui, -apple-system, BlinkMacSystemFont, 'Segoe UI', Roboto, Oxygen, Ubuntu, Cantarell, sans-serif"><g transform="translate(400,120)"><circle r="25" fill="#4a90e2" opacity=".2"/><path fill="#4a90e2" stroke="#4a90e2" d="M-10,-5 L0,-10 L10,-5 L10,5 L0,10 L-10,5 Z"/><text y="25" fill="#fff" font-size="10" text-anchor="middle">Prompt Injection</text></g><g transform="translate(510,140)"><circle r="25" fill="#4a90e2" opacity=".2"/><path fill="#4a90e2" stroke="#4a90e2" d="M-8,-8 L8,-8 L8,4 L0,8 L-8,4 Z"/><text y="25" fill="#fff" font-size="10" text-anchor="middle">Info Disclosure</text></g><g transform="translate(550,200)"><circle r="25" fill="#4a90e2" opacity=".2"/><path fill="#4a90e2" stroke="#4a90e2" d="M-8,-8 L0,-8 L8,0 L0,8 L-8,0 Z"/><text y="25" fill="#fff" font-size="10" text-anchor="middle">Supply Chain</text></g><g transform="translate(510,260)"><circle r="25" fill="#4a90e2" opacity=".2"/><path fill="#4a90e2" d="M-5,-8 C8,-8 8,8 -5,8 C-8,0 -8,0 -5,-8"/><text y="25" fill="#fff" font-size="10" text-anchor="middle">Data Poisoning</text></g><g transform="translate(400,280)"><circle r="25" fill="#4a90e2" opacity=".2"/><rect width="16" height="16" x="-8" y="-8" fill="none" stroke="#4a90e2"/><text y="25" fill="#fff" font-size="10" text-anchor="middle">Output Handling</text></g><g transform="translate(290,260)"><circle r="25" fill="#4a90e2" opacity=".2"/><path fill="#4a90e2" d="M-8,-8 L8,-8 L0,8 Z"/><text y="25" fill="#fff" font-size="10" text-anchor="middle">Excessive Agency</text></g><g transform="translate(250,200)"><circle r="25" fill="#4a90e2" opacity=".2"/><path fill="#4a90e2" d="M-5,-8 L5,-8 L8,-5 L8,5 L5,8 L-5,8 L-8,5 L-8,-5 Z"/><text y="25" fill="#fff" font-size="10" text-anchor="middle">Prompt Leak</text></g><g transform="translate(290,140)"><circle r="25" fill="#4a90e2" opacity=".2"/><circle r="8" fill="none" stroke="#4a90e2"/><path stroke="#4a90e2" stroke-width="2" d="M-8,-8 L8,8 M-8,8 L8,-8"/><text y="25" fill="#fff" font-size="10" text-anchor="middle">Embeddings</text></g><g transform="translate(340,100)"><circle r="25" fill="#4a90e2" opacity=".2"/><path fill="#4a90e2" d="M-8,0 Q0,-8 8,0 Q0,8 -8,0"/><text y="25" fill="#fff" font-size="10" text-anchor="middle">Misinformation</text></g><g transform="translate(460,100)"><circle r="25" fill="#4a90e2" opacity=".2"/><path fill="#4a90e2" d="M-8,-8 L8,-8 L8,8 L-8,8 Z M-4,-4 L4,-4 L4,4 L-4,4 Z"/><text y="25" fill="#fff" font-size="10" text-anchor="middle">Consumption</text></g></g><g id="connections" stroke="#4a90e2" stroke-width="1" opacity=".3"><line x1="400" x2="400" y1="200" y2="120"/><line x1="400" x2="510" y1="200" y2="140"/><line x1="400" x2="550" y1="200" y2="200"/><line x1="400" x2="510" y1="200" y2="260"/><line x1="400" x2="400" y1="200" y2="280"/><line x1="400" x2="290" y1="200" y2="260"/><line x1="400" x2="250" y1="200" y2="200"/><line x1="400" x2="290" y1="200" y2="140"/><line x1="400" x2="340" y1="200" y2="100"/><line x1="400" x2="460" y1="200" y2="100"/></g><text x="400" y="350" fill="#4a90e2" font-family="system-ui, -apple-system, BlinkMacSystemFont, 'Segoe UI', Roboto, Oxygen, Ubuntu, Cantarell, sans-serif" font-size="14" text-anchor="middle">Security Framework for Large Language Models</text></svg>