<svg xmlns="http://www.w3.org/2000/svg" viewBox="0 0 800 400"><defs><linearGradient id="pluginGradient" x1="0%" x2="100%" y1="0%" y2="0%"><stop offset="0%" style="stop-color:#4f46e5;stop-opacity:1"/><stop offset="100%" style="stop-color:#7c3aed;stop-opacity:1"/></linearGradient><linearGradient id="payloadGradient" x1="0%" x2="100%" y1="0%" y2="0%"><stop offset="0%" style="stop-color:#dc2626;stop-opacity:1"/><stop offset="100%" style="stop-color:#ef4444;stop-opacity:1"/></linearGradient><linearGradient id="appGradient" x1="0%" x2="100%" y1="0%" y2="0%"><stop offset="0%" style="stop-color:#059669;stop-opacity:1"/><stop offset="100%" style="stop-color:#10b981;stop-opacity:1"/></linearGradient><marker id="arrowhead" markerHeight="7" markerWidth="10" orient="auto" refX="9" refY="3.5"><polygon fill="#6B7280" points="0 0 10 3.5 0 7"/></marker><filter id="shadow" width="140%" height="140%" x="-20%" y="-20%"><feDropShadow dx="2" dy="2" flood-opacity=".3" stdDeviation="3"/></filter></defs><g transform="translate(50, 150)"><rect width="160" height="100" x="16" y="16" fill="#4F46E5" opacity=".3" rx="10"/><rect width="160" height="100" x="8" y="8" fill="#4F46E5" opacity=".5" rx="10"/><rect width="160" height="100" x="0" y="0" fill="url(#pluginGradient)" filter="url(#shadow)" rx="10"/><text x="80" y="45" fill="#fff" font-family="system-ui" font-size="16" font-weight="bold" text-anchor="middle">Plugin</text><text x="80" y="65" fill="#fff" font-family="system-ui" font-size="12" text-anchor="middle">Adversarial LLM</text></g><g><g transform="translate(340, 50)"><rect width="140" height="60" fill="url(#payloadGradient)" filter="url(#shadow)" rx="8"/><text x="70" y="35" fill="#fff" font-family="system-ui" font-size="14" text-anchor="middle">Payload 1</text></g><g transform="translate(340, 50) translate(0, 80)"><rect width="140" height="60" fill="url(#payloadGradient)" filter="url(#shadow)" rx="8"/><text x="70" y="35" fill="#fff" font-family="system-ui" font-size="14" text-anchor="middle">Payload 2</text></g><g transform="translate(340, 50) translate(0, 160)"><rect width="140" height="60" fill="url(#payloadGradient)" filter="url(#shadow)" rx="8"/><text x="70" y="35" fill="#fff" font-family="system-ui" font-size="14" text-anchor="middle">Payload 3</text></g><g transform="translate(340, 50) translate(0, 240)"><rect width="140" height="60" fill="url(#payloadGradient)" filter="url(#shadow)" rx="8"/><text x="70" y="35" fill="#fff" font-family="system-ui" font-size="14" text-anchor="middle">Payload 4</text></g></g><g transform="translate(590, 150)"><rect width="160" height="100" fill="url(#appGradient)" rx="10"/><text x="80" y="55" fill="#fff" font-family="system-ui" font-size="16" font-weight="bold" text-anchor="middle">Application</text></g><g><line x1="210" x2="340" y1="180" y2="80" stroke="#6B7280" stroke-width="2" marker-end="url(#arrowhead)"/><line x1="210" x2="340" y1="190" y2="160" stroke="#6B7280" stroke-width="2" marker-end="url(#arrowhead)"/><line x1="210" x2="340" y1="200" y2="240" stroke="#6B7280" stroke-width="2" marker-end="url(#arrowhead)"/><line x1="210" x2="340" y1="210" y2="320" stroke="#6B7280" stroke-width="2" marker-end="url(#arrowhead)"/><line x1="480" x2="590" y1="80" y2="180" stroke="#6B7280" stroke-width="2" marker-end="url(#arrowhead)"/><line x1="480" x2="590" y1="160" y2="190" stroke="#6B7280" stroke-width="2" marker-end="url(#arrowhead)"/><line x1="480" x2="590" y1="240" y2="200" stroke="#6B7280" stroke-width="2" marker-end="url(#arrowhead)"/><line x1="480" x2="590" y1="320" y2="210" stroke="#6B7280" stroke-width="2" marker-end="url(#arrowhead)"/></g></svg>