<svg xmlns="http://www.w3.org/2000/svg" viewBox="0 0 800 600" style="max-width:100%;height:auto"><defs><style>.label,.sublabel{font-family:-apple-system,BlinkMacSystemFont,&apos;Segoe UI&apos;,sans-serif;font-size:14px;fill:#2d3748}.sublabel{font-size:12px;fill:#4a5568}.trace-text{font-family:&apos;SF Mono&apos;,Monaco,&apos;Courier New&apos;,monospace;font-size:10px;fill:#2d3748}.step-number{font-family:-apple-system,BlinkMacSystemFont,&apos;Segoe UI&apos;,sans-serif;font-size:13px;font-weight:600;fill:#fff}.arrow{fill:none;stroke:#4a5568;stroke-width:2;marker-end:url(#arrowhead)}.feedback-arrow{fill:none;stroke:#059669;stroke-width:2.5;marker-end:url(#arrowhead-feedback);stroke-dasharray:5,3}.attacker-box,.box{stroke-width:2}.box{fill:#fff;stroke:#cbd5e0}.attacker-box{fill:#fef3c7;stroke:#f59e0b}.agent-box,.trace-box{fill:#dbeafe;stroke:#3b82f6;stroke-width:2}.trace-box{fill:#f3e8ff;stroke:#8b5cf6}.component{fill:#f7fafc;stroke:#cbd5e0;stroke-width:1.5;rx:4}.trace-span{fill:#fef3e7;stroke:#f59e0b;stroke-width:1;rx:2}.step-circle{fill:#3b82f6;stroke:none}</style><marker id="arrowhead" markerHeight="10" markerWidth="10" orient="auto" refX="9" refY="3"><polygon fill="#4a5568" points="0 0 10 3 0 6"/></marker><marker id="arrowhead-feedback" markerHeight="10" markerWidth="10" orient="auto" refX="9" refY="3"><polygon fill="#059669" points="0 0 10 3 0 6"/></marker></defs><rect width="180" height="100" x="50" y="70" class="attacker-box" rx="8"/><circle cx="70" cy="90" r="12" class="step-circle"/><text x="70" y="95" class="step-number" text-anchor="middle">1</text><text x="140" y="95" class="label" text-anchor="middle">Attack Strategy</text><text x="140" y="115" class="sublabel" text-anchor="middle">Generates adversarial</text><text x="140" y="130" class="sublabel" text-anchor="middle">prompts</text><text x="140" y="155" class="trace-text" text-anchor="middle" style="fill:#059669;font-weight:600">← Uses trace feedback</text><path d="M 230 120 L 330 120" class="arrow"/><text x="280" y="110" class="sublabel" text-anchor="middle" style="font-size:11px">Attack Prompt</text><rect width="220" height="180" x="330" y="70" class="agent-box" rx="8"/><circle cx="350" cy="90" r="12" class="step-circle"/><text x="350" y="95" class="step-number" text-anchor="middle">2</text><text x="440" y="95" class="label" text-anchor="middle">Agent System</text><rect width="190" height="30" x="345" y="110" class="component"/><text x="350" y="130" class="sublabel">🤖 LLM Processing</text><rect width="190" height="30" x="345" y="145" class="component"/><text x="350" y="165" class="sublabel">🛡️ Guardrails</text><rect width="190" height="30" x="345" y="180" class="component"/><text x="350" y="200" class="sublabel">🔧 Tool Execution</text><rect width="190" height="30" x="345" y="215" class="component"/><text x="350" y="235" class="sublabel">💬 Response</text><g opacity=".6"><path stroke="#8b5cf6" stroke-dasharray="2 2" stroke-width="1.5" d="M 345 125 L 270 280"/><path stroke="#8b5cf6" stroke-dasharray="2 2" stroke-width="1.5" d="M 345 160 L 270 290"/><path stroke="#8b5cf6" stroke-dasharray="2 2" stroke-width="1.5" d="M 345 195 L 270 300"/><circle cx="270" cy="285" r="3" fill="#8b5cf6"/><circle cx="270" cy="295" r="3" fill="#8b5cf6"/><circle cx="270" cy="305" r="3" fill="#8b5cf6"/></g><rect width="430" height="150" x="50" y="270" class="trace-box" rx="8"/><circle cx="70" cy="290" r="12" class="step-circle"/><text x="70" y="295" class="step-number" text-anchor="middle">3</text><text x="265" y="295" class="label" text-anchor="middle">OpenTelemetry Traces Captured</text><g transform="translate(70, 310)"><rect width="390" height="18" x="0" y="0" class="trace-span"/><text x="5" y="13" class="trace-text">[120ms] guardrail.check | decision=blocked</text></g><g transform="translate(70, 333)"><rect width="390" height="18" x="0" y="0" class="trace-span"/><text x="5" y="13" class="trace-text">[890ms] tool.database_query | tool=user_search</text></g><g transform="translate(70, 356)"><rect width="390" height="18" x="0" y="0" class="trace-span"/><text x="5" y="13" class="trace-text">[15ms] guardrail.output_check | ERROR: Rate limit</text></g><g transform="translate(70, 379)"><rect width="390" height="18" x="0" y="0" class="trace-span"/><text x="5" y="13" class="trace-text">[230ms] agent.response | model=gpt-4</text></g><rect width="230" height="150" x="520" y="270" class="box" rx="8"/><circle cx="540" cy="290" r="12" class="step-circle"/><text x="540" y="295" class="step-number" text-anchor="middle">4</text><text x="635" y="295" class="label" text-anchor="middle">Trace Analysis</text><text x="530" y="320" class="sublabel" style="font-weight:600">Key Observations:</text><text x="530" y="340" class="trace-text">• Guardrail blocked output</text><text x="530" y="355" class="trace-text">• Rate limit error detected</text><text x="530" y="370" class="trace-text">• Tool: user_search called</text><text x="530" y="385" class="trace-text">• Model: gpt-4 used</text><text x="530" y="400" class="trace-text">• Total duration: 1.2s</text><path d="M 480 345 L 520 345" class="arrow"/><path d="M 750 345 L 770 345 Q 780 345, 780 335 L 780 50 Q 780 40, 770 40 L 150 40 Q 140 40, 140 50 L 140 70" class="feedback-arrow"/><text x="400" y="25" class="sublabel" text-anchor="middle" style="fill:#059669;font-weight:600">Trace Intelligence Feedback</text></svg>