<svg xmlns="http://www.w3.org/2000/svg" viewBox="0 0 1200 500"><defs><linearGradient id="pluginGradient" x1="0%" x2="100%" y1="0%" y2="0%"><stop offset="0%" style="stop-color:#4f46e5;stop-opacity:1"/><stop offset="100%" style="stop-color:#7c3aed;stop-opacity:1"/></linearGradient><linearGradient id="payloadGradient" x1="0%" x2="100%" y1="0%" y2="0%"><stop offset="0%" style="stop-color:#dc2626;stop-opacity:1"/><stop offset="100%" style="stop-color:#ef4444;stop-opacity:1"/></linearGradient><linearGradient id="variantGradient" x1="0%" x2="100%" y1="0%" y2="0%"><stop offset="0%" style="stop-color:#991b1b;stop-opacity:1"/><stop offset="100%" style="stop-color:#b91c1c;stop-opacity:1"/></linearGradient><linearGradient id="appGradient" x1="0%" x2="100%" y1="0%" y2="0%"><stop offset="0%" style="stop-color:#059669;stop-opacity:1"/><stop offset="100%" style="stop-color:#10b981;stop-opacity:1"/></linearGradient><marker id="arrowhead" markerHeight="7" markerWidth="10" orient="auto" refX="9" refY="3.5"><polygon fill="#6B7280" points="0 0 10 3.5 0 7"/></marker><filter id="shadow" width="140%" height="140%" x="-20%" y="-20%"><feDropShadow dx="2" dy="2" flood-opacity=".3" stdDeviation="3"/></filter></defs><g transform="translate(50, 150)"><rect width="160" height="100" x="16" y="16" fill="#4F46E5" opacity=".3" rx="10"/><rect width="160" height="100" x="8" y="8" fill="#4F46E5" opacity=".5" rx="10"/><rect width="160" height="100" x="0" y="0" fill="url(#pluginGradient)" filter="url(#shadow)" rx="10"/><text x="80" y="45" fill="#fff" font-family="system-ui" font-size="16" font-weight="bold" text-anchor="middle">Plugin</text><text x="80" y="65" fill="#fff" font-family="system-ui" font-size="12" text-anchor="middle">Adversarial LLM</text></g><g><g transform="translate(300, 80)"><rect width="140" height="60" fill="url(#payloadGradient)" filter="url(#shadow)" rx="8"/><text x="70" y="35" fill="#fff" font-family="system-ui" font-size="14" text-anchor="middle">Payload 1</text></g><g transform="translate(300, 80) translate(0, 100)"><rect width="140" height="60" fill="url(#payloadGradient)" filter="url(#shadow)" rx="8"/><text x="70" y="35" fill="#fff" font-family="system-ui" font-size="14" text-anchor="middle">Payload 2</text></g><g transform="translate(300, 80) translate(0, 200)"><rect width="140" height="60" fill="url(#payloadGradient)" filter="url(#shadow)" rx="8"/><text x="70" y="35" fill="#fff" font-family="system-ui" font-size="14" text-anchor="middle">Payload 3</text></g></g><g><g transform="translate(600, 0)"><rect width="120" height="40" fill="url(#variantGradient)" filter="url(#shadow)" rx="6"/><text x="60" y="25" fill="#fff" font-family="system-ui" font-size="12" text-anchor="middle">Variant 1.1</text></g><g transform="translate(600, 0) translate(0, 45)"><rect width="120" height="40" fill="url(#variantGradient)" filter="url(#shadow)" rx="6"/><text x="60" y="25" fill="#fff" font-family="system-ui" font-size="12" text-anchor="middle">Variant 1.2</text></g><g transform="translate(600, 0) translate(0, 90)"><rect width="120" height="40" fill="url(#variantGradient)" filter="url(#shadow)" rx="6"/><text x="60" y="25" fill="#fff" font-family="system-ui" font-size="12" text-anchor="middle">Variant 1.3</text></g><g transform="translate(600, 0) translate(0, 150)"><rect width="120" height="40" fill="url(#variantGradient)" filter="url(#shadow)" rx="6"/><text x="60" y="25" fill="#fff" font-family="system-ui" font-size="12" text-anchor="middle">Variant 2.1</text></g><g transform="translate(600, 0) translate(0, 195)"><rect width="120" height="40" fill="url(#variantGradient)" filter="url(#shadow)" rx="6"/><text x="60" y="25" fill="#fff" font-family="system-ui" font-size="12" text-anchor="middle">Variant 2.2</text></g><g transform="translate(600, 0) translate(0, 240)"><rect width="120" height="40" fill="url(#variantGradient)" filter="url(#shadow)" rx="6"/><text x="60" y="25" fill="#fff" font-family="system-ui" font-size="12" text-anchor="middle">Variant 2.3</text></g><g transform="translate(600, 0) translate(0, 300)"><rect width="120" height="40" fill="url(#variantGradient)" filter="url(#shadow)" rx="6"/><text x="60" y="25" fill="#fff" font-family="system-ui" font-size="12" text-anchor="middle">Variant 3.1</text></g><g transform="translate(600, 0) translate(0, 345)"><rect width="120" height="40" fill="url(#variantGradient)" filter="url(#shadow)" rx="6"/><text x="60" y="25" fill="#fff" font-family="system-ui" font-size="12" text-anchor="middle">Variant 3.2</text></g><g transform="translate(600, 0) translate(0, 390)"><rect width="120" height="40" fill="url(#variantGradient)" filter="url(#shadow)" rx="6"/><text x="60" y="25" fill="#fff" font-family="system-ui" font-size="12" text-anchor="middle">Variant 3.3</text></g></g><g transform="translate(900, 150)"><rect width="160" height="100" fill="url(#appGradient)" rx="10"/><text x="80" y="55" fill="#fff" font-family="system-ui" font-size="16" font-weight="bold" text-anchor="middle">Application</text></g><g><line x1="210" x2="300" y1="180" y2="110" stroke="#6B7280" stroke-width="2" marker-end="url(#arrowhead)"/><line x1="210" x2="300" y1="190" y2="210" stroke="#6B7280" stroke-width="2" marker-end="url(#arrowhead)"/><line x1="210" x2="300" y1="200" y2="310" stroke="#6B7280" stroke-width="2" marker-end="url(#arrowhead)"/><line x1="440" x2="600" y1="110" y2="20" stroke="#6B7280" stroke-width="2" marker-end="url(#arrowhead)"/><line x1="440" x2="600" y1="110" y2="65" stroke="#6B7280" stroke-width="2" marker-end="url(#arrowhead)"/><line x1="440" x2="600" y1="110" y2="110" stroke="#6B7280" stroke-width="2" marker-end="url(#arrowhead)"/><line x1="440" x2="600" y1="210" y2="170" stroke="#6B7280" stroke-width="2" marker-end="url(#arrowhead)"/><line x1="440" x2="600" y1="210" y2="215" stroke="#6B7280" stroke-width="2" marker-end="url(#arrowhead)"/><line x1="440" x2="600" y1="210" y2="260" stroke="#6B7280" stroke-width="2" marker-end="url(#arrowhead)"/><line x1="440" x2="600" y1="310" y2="320" stroke="#6B7280" stroke-width="2" marker-end="url(#arrowhead)"/><line x1="440" x2="600" y1="310" y2="365" stroke="#6B7280" stroke-width="2" marker-end="url(#arrowhead)"/><line x1="440" x2="600" y1="310" y2="410" stroke="#6B7280" stroke-width="2" marker-end="url(#arrowhead)"/><line x1="720" x2="900" y1="20" y2="170" stroke="#6B7280" stroke-width="2" marker-end="url(#arrowhead)"/><line x1="720" x2="900" y1="65" y2="180" stroke="#6B7280" stroke-width="2" marker-end="url(#arrowhead)"/><line x1="720" x2="900" y1="110" y2="190" stroke="#6B7280" stroke-width="2" marker-end="url(#arrowhead)"/><line x1="720" x2="900" y1="170" y2="200" stroke="#6B7280" stroke-width="2" marker-end="url(#arrowhead)"/><line x1="720" x2="900" y1="215" y2="210" stroke="#6B7280" stroke-width="2" marker-end="url(#arrowhead)"/><line x1="720" x2="900" y1="260" y2="220" stroke="#6B7280" stroke-width="2" marker-end="url(#arrowhead)"/><line x1="720" x2="900" y1="320" y2="230" stroke="#6B7280" stroke-width="2" marker-end="url(#arrowhead)"/><line x1="720" x2="900" y1="365" y2="240" stroke="#6B7280" stroke-width="2" marker-end="url(#arrowhead)"/><line x1="720" x2="900" y1="410" y2="250" stroke="#6B7280" stroke-width="2" marker-end="url(#arrowhead)"/></g></svg>