<svg xmlns="http://www.w3.org/2000/svg" viewBox="0 0 800 700"><defs><marker id="arrowhead" markerHeight="5" markerWidth="7" orient="auto" refX="0" refY="2.5"><polygon fill="#333" points="0 0 7 2.5 0 5"/></marker></defs><text x="400" y="40" font-family="Arial" font-size="24" font-weight="bold" text-anchor="middle">Tree-based Jailbreak Optimization</text><rect width="150" height="40" x="325" y="70" fill="#f99" stroke="#c00" stroke-width="2" rx="5"/><text x="400" y="95" font-family="Arial" font-size="14" text-anchor="middle">Original Prompt</text><rect width="100" height="40" x="150" y="180" fill="#9cf" rx="5"/><text x="200" y="205" font-family="Arial" font-size="14" text-anchor="middle">Variation 1</text><rect width="100" height="40" x="350" y="180" fill="#9cf" rx="5"/><text x="400" y="205" font-family="Arial" font-size="14" text-anchor="middle">Variation 2</text><rect width="100" height="40" x="550" y="180" fill="#ccc" stroke="red" stroke-width="2" rx="5"/><text x="600" y="205" fill="#666" font-family="Arial" font-size="14" text-anchor="middle">Variation 3</text><line x1="560" x2="640" y1="190" y2="210" stroke="red" stroke-width="2"/><line x1="560" x2="640" y1="210" y2="190" stroke="red" stroke-width="2"/><rect width="100" height="40" x="50" y="300" fill="#9cf" rx="5"/><text x="100" y="325" font-family="Arial" font-size="14" text-anchor="middle">Variation 1.1</text><rect width="100" height="40" x="175" y="300" fill="#ccc" stroke="red" stroke-width="2" rx="5"/><text x="225" y="325" fill="#666" font-family="Arial" font-size="14" text-anchor="middle">Variation 1.2</text><line x1="185" x2="265" y1="310" y2="330" stroke="red" stroke-width="2"/><line x1="185" x2="265" y1="330" y2="310" stroke="red" stroke-width="2"/><rect width="100" height="40" x="325" y="300" fill="#9cf" rx="5"/><text x="375" y="325" font-family="Arial" font-size="14" text-anchor="middle">Variation 2.1</text><rect width="100" height="40" x="450" y="300" fill="#9cf" rx="5"/><text x="500" y="325" font-family="Arial" font-size="14" text-anchor="middle">Variation 2.2</text><rect width="100" height="40" x="25" y="420" fill="#9cf" rx="5"/><text x="75" y="445" font-family="Arial" font-size="14" text-anchor="middle">Variation 1.1.1</text><rect width="100" height="40" x="150" y="420" fill="#ccc" stroke="red" stroke-width="2" rx="5"/><text x="200" y="445" fill="#666" font-family="Arial" font-size="14" text-anchor="middle">Variation 1.1.2</text><line x1="160" x2="240" y1="430" y2="450" stroke="red" stroke-width="2"/><line x1="160" x2="240" y1="450" y2="430" stroke="red" stroke-width="2"/><rect width="100" height="40" x="275" y="420" fill="#9cf" rx="5"/><text x="325" y="445" font-family="Arial" font-size="14" text-anchor="middle">Variation 2.1.1</text><rect width="100" height="40" x="400" y="420" fill="#ccc" stroke="red" stroke-width="2" rx="5"/><text x="450" y="445" fill="#666" font-family="Arial" font-size="14" text-anchor="middle">Variation 2.1.2</text><line x1="410" x2="490" y1="430" y2="450" stroke="red" stroke-width="2"/><line x1="410" x2="490" y1="450" y2="430" stroke="red" stroke-width="2"/><rect width="100" height="40" x="525" y="420" fill="#ccc" stroke="red" stroke-width="2" rx="5"/><text x="575" y="445" fill="#666" font-family="Arial" font-size="14" text-anchor="middle">Variation 2.2.1</text><line x1="535" x2="615" y1="430" y2="450" stroke="red" stroke-width="2"/><line x1="535" x2="615" y1="450" y2="430" stroke="red" stroke-width="2"/><rect width="120" height="40" x="15" y="540" fill="#ccc" stroke="red" stroke-width="2" rx="5"/><text x="75" y="565" fill="#666" font-family="Arial" font-size="14" text-anchor="middle">Variation 1.1.1.1</text><line x1="25" x2="125" y1="550" y2="570" stroke="red" stroke-width="2"/><line x1="25" x2="125" y1="570" y2="550" stroke="red" stroke-width="2"/><rect width="150" height="40" x="250" y="540" fill="#0c0" stroke="#060" stroke-width="2" rx="5"/><text x="325" y="565" font-family="Arial" font-size="14" text-anchor="middle">Successful Prompt</text><line x1="400" x2="200" y1="110" y2="180" stroke="#333" stroke-width="1" marker-end="url(#arrowhead)"/><line x1="400" x2="400" y1="110" y2="180" stroke="#333" stroke-width="1" marker-end="url(#arrowhead)"/><line x1="400" x2="600" y1="110" y2="180" stroke="#333" stroke-dasharray="4 4" stroke-width="1" marker-end="url(#arrowhead)"/><line x1="200" x2="100" y1="220" y2="300" stroke="#333" stroke-width="1" marker-end="url(#arrowhead)"/><line x1="200" x2="225" y1="220" y2="300" stroke="#333" stroke-dasharray="4 4" stroke-width="1" marker-end="url(#arrowhead)"/><line x1="400" x2="375" y1="220" y2="300" stroke="#333" stroke-width="1" marker-end="url(#arrowhead)"/><line x1="400" x2="500" y1="220" y2="300" stroke="#333" stroke-width="1" marker-end="url(#arrowhead)"/><line x1="100" x2="75" y1="340" y2="420" stroke="#333" stroke-width="1" marker-end="url(#arrowhead)"/><line x1="100" x2="200" y1="340" y2="420" stroke="#333" stroke-dasharray="4 4" stroke-width="1" marker-end="url(#arrowhead)"/><line x1="375" x2="325" y1="340" y2="420" stroke="#333" stroke-width="1" marker-end="url(#arrowhead)"/><line x1="375" x2="450" y1="340" y2="420" stroke="#333" stroke-dasharray="4 4" stroke-width="1" marker-end="url(#arrowhead)"/><line x1="500" x2="575" y1="340" y2="420" stroke="#333" stroke-dasharray="4 4" stroke-width="1" marker-end="url(#arrowhead)"/><line x1="75" x2="75" y1="460" y2="540" stroke="#333" stroke-dasharray="4 4" stroke-width="1" marker-end="url(#arrowhead)"/><line x1="325" x2="325" y1="460" y2="540" stroke="#333" stroke-width="1" marker-end="url(#arrowhead)"/></svg>