<svg xmlns="http://www.w3.org/2000/svg" width="1200" height="800"><defs><style>.header{font:700 24px sans-serif;fill:#1a1a1a}.dataset-name{font:700 16px sans-serif;fill:#2c3e50}.dataset-info{font:14px sans-serif;fill:#555}.category{font:12px sans-serif;fill:#7f8c8d}.card{fill:#f8f9fa;stroke:#dee2e6;stroke-width:2}.card:hover{fill:#e9ecef}</style></defs><text x="600" y="40" class="header" text-anchor="middle">Top 10 LLM Safety, Toxicity &amp; Bias Datasets</text><g transform="translate(50, 80)"><rect width="530" height="130" class="card" rx="8"/><text x="15" y="25" class="dataset-name">1. Jigsaw Toxic Comment Classification</text><text x="15" y="50" class="dataset-info">📊 160K comments from Wikipedia talk pages</text><text x="15" y="75" class="dataset-info">🎯 Focus: Toxicity detection, hate speech, insults</text><text x="15" y="100" class="dataset-info">📄 License: CC0 (Public Domain)</text><text x="15" y="120" class="category">TOXICITY • MODERATION</text></g><g transform="translate(620, 80)"><rect width="530" height="130" class="card" rx="8"/><text x="15" y="25" class="dataset-name">2. RealToxicityPrompts</text><text x="15" y="50" class="dataset-info">📊 99K+ naturally occurring prompts</text><text x="15" y="75" class="dataset-info">🎯 Focus: Toxic generation tendency</text><text x="15" y="100" class="dataset-info">📄 License: Apache 2.0</text><text x="15" y="120" class="category">TOXICITY • GENERATION</text></g><g transform="translate(50, 230)"><rect width="530" height="130" class="card" rx="8"/><text x="15" y="25" class="dataset-name">3. ToxiGen</text><text x="15" y="50" class="dataset-info">📊 274K machine-generated statements</text><text x="15" y="75" class="dataset-info">🎯 Focus: Implicit hate speech detection</text><text x="15" y="100" class="dataset-info">📄 License: MIT</text><text x="15" y="120" class="category">IMPLICIT BIAS • HATE SPEECH</text></g><g transform="translate(620, 230)"><rect width="530" height="130" class="card" rx="8"/><text x="15" y="25" class="dataset-name">4. CrowS-Pairs</text><text x="15" y="50" class="dataset-info">📊 1,508 sentence pairs across 9 bias types</text><text x="15" y="75" class="dataset-info">🎯 Focus: Social bias measurement</text><text x="15" y="100" class="dataset-info">📄 License: CC BY-SA 4.0</text><text x="15" y="120" class="category">BIAS • STEREOTYPES</text></g><g transform="translate(50, 380)"><rect width="530" height="130" class="card" rx="8"/><text x="15" y="25" class="dataset-name">5. StereoSet</text><text x="15" y="50" class="dataset-info">📊 16K multiple-choice questions</text><text x="15" y="75" class="dataset-info">🎯 Focus: Stereotypical bias in 4 domains</text><text x="15" y="100" class="dataset-info">📄 License: CC BY-SA 4.0</text><text x="15" y="120" class="category">BIAS • STEREOTYPES</text></g><g transform="translate(620, 380)"><rect width="530" height="130" class="card" rx="8"/><text x="15" y="25" class="dataset-name">6. HolisticBias</text><text x="15" y="50" class="dataset-info">📊 600 descriptors, 450K+ prompts across 13 axes</text><text x="15" y="75" class="dataset-info">🎯 Focus: Comprehensive demographic bias</text><text x="15" y="100" class="dataset-info">📄 License: CC BY-SA 4.0</text><text x="15" y="120" class="category">BIAS • COMPREHENSIVE</text></g><g transform="translate(50, 530)"><rect width="350" height="130" class="card" rx="8"/><text x="15" y="25" class="dataset-name">7. TruthfulQA</text><text x="15" y="50" class="dataset-info">📊 817 questions</text><text x="15" y="75" class="dataset-info">🎯 Focus: Truthfulness</text><text x="15" y="100" class="dataset-info">📄 License: Apache 2.0</text><text x="15" y="120" class="category">TRUTHFULNESS</text></g><g transform="translate(430, 530)"><rect width="350" height="130" class="card" rx="8"/><text x="15" y="25" class="dataset-name">8. Anthropic HHH</text><text x="15" y="50" class="dataset-info">📊 52K comparisons</text><text x="15" y="75" class="dataset-info">🎯 Focus: RLHF alignment</text><text x="15" y="100" class="dataset-info">📄 License: MIT</text><text x="15" y="120" class="category">ALIGNMENT • RLHF</text></g><g transform="translate(810, 530)"><rect width="340" height="130" class="card" rx="8"/><text x="15" y="25" class="dataset-name">9. Red Team Dataset</text><text x="15" y="50" class="dataset-info">📊 39K conversations</text><text x="15" y="75" class="dataset-info">🎯 Focus: Adversarial</text><text x="15" y="100" class="dataset-info">📄 License: MIT</text><text x="15" y="120" class="category">ADVERSARIAL</text></g><g transform="translate(50, 680)"><rect width="1100" height="100" class="card" rx="8"/><text x="15" y="25" class="dataset-name">10. ProsocialDialog</text><text x="15" y="50" class="dataset-info">📊 58K dialogues with 331K utterances • 🎯 Focus: Prosocial responses to unsafe content • 📄 License: CC BY 4.0</text><text x="15" y="80" class="category">SAFETY • PROSOCIAL BEHAVIOR</text></g></svg>