<svg xmlns="http://www.w3.org/2000/svg" width="1200" height="630"><defs><linearGradient id="grad1" x1="0%" x2="100%" y1="0%" y2="100%"><stop offset="0%" style="stop-color:#667eea;stop-opacity:1"/><stop offset="100%" style="stop-color:#764ba2;stop-opacity:1"/></linearGradient><linearGradient id="grad2" x1="0%" x2="100%" y1="0%" y2="0%"><stop offset="0%" style="stop-color:#f093fb;stop-opacity:.8"/><stop offset="100%" style="stop-color:#f5576c;stop-opacity:.8"/></linearGradient><filter id="glow"><feGaussianBlur result="coloredBlur" stdDeviation="3"/><feMerge><feMergeNode in="coloredBlur"/><feMergeNode in="SourceGraphic"/></feMerge></filter></defs><rect width="1200" height="630" fill="url(#grad1)"/><circle cx="100" cy="100" r="60" fill="url(#grad2)" opacity=".3"/><circle cx="1100" cy="500" r="80" fill="url(#grad2)" opacity=".3"/><circle cx="900" cy="150" r="40" fill="url(#grad2)" opacity=".4"/><g><path fill="#fff" d="M 100 0 L 200 40 L 200 120 Q 200 200 100 240 Q 0 200 0 120 L 0 40 Z" filter="url(#glow)" opacity=".9" transform="translate(500, 150)"/><path stroke="#667eea" stroke-linecap="round" stroke-width="12" d="M 100 50 L 100 180 M 60 120 L 140 120" opacity=".8" transform="translate(500, 150)"/><path fill="none" stroke="#4ade80" stroke-linecap="round" stroke-linejoin="round" stroke-width="10" d="M 70 115 L 95 140 L 135 95" filter="url(#glow)" transform="translate(500, 150)"/></g><text x="600" y="450" fill="#fff" filter="url(#glow)" font-family="system-ui, -apple-system, sans-serif" font-size="52" font-weight="bold" text-anchor="middle">Top 10 LLM Safety Datasets</text><text x="600" y="500" fill="#fff" font-family="system-ui, -apple-system, sans-serif" font-size="28" opacity=".9" text-anchor="middle">Open Benchmarks for Toxicity, Bias &amp; Safety Evaluation</text><g transform="translate(300, 540)"><rect width="140" height="40" x="0" y="0" fill="#fff" opacity=".2" rx="20"/><text x="70" y="27" fill="#fff" font-family="sans-serif" font-size="16" text-anchor="middle">Toxicity</text><rect width="100" height="40" x="160" y="0" fill="#fff" opacity=".2" rx="20"/><text x="210" y="27" fill="#fff" font-family="sans-serif" font-size="16" text-anchor="middle">Bias</text><rect width="140" height="40" x="280" y="0" fill="#fff" opacity=".2" rx="20"/><text x="350" y="27" fill="#fff" font-family="sans-serif" font-size="16" text-anchor="middle">Safety</text><rect width="160" height="40" x="440" y="0" fill="#fff" opacity=".2" rx="20"/><text x="520" y="27" fill="#fff" font-family="sans-serif" font-size="16" text-anchor="middle">Alignment</text></g></svg>