<svg xmlns="http://www.w3.org/2000/svg" viewBox="0 0 600 400"><defs><linearGradient id="grad1" x1="0%" x2="100%" y1="0%" y2="100%"><stop offset="0%" style="stop-color:#6366f1;stop-opacity:1"/><stop offset="100%" style="stop-color:#8b5cf6;stop-opacity:1"/></linearGradient><linearGradient id="grad2" x1="0%" x2="100%" y1="0%" y2="100%"><stop offset="0%" style="stop-color:#8b5cf6;stop-opacity:1"/><stop offset="100%" style="stop-color:#a78bfa;stop-opacity:1"/></linearGradient><linearGradient id="grad3" x1="0%" x2="100%" y1="0%" y2="100%"><stop offset="0%" style="stop-color:#a78bfa;stop-opacity:1"/><stop offset="100%" style="stop-color:#c4b5fd;stop-opacity:1"/></linearGradient><linearGradient id="grad4" x1="0%" x2="100%" y1="0%" y2="100%"><stop offset="0%" style="stop-color:#c4b5fd;stop-opacity:1"/><stop offset="100%" style="stop-color:#ddd6fe;stop-opacity:1"/></linearGradient><linearGradient id="grad5" x1="0%" x2="100%" y1="0%" y2="100%"><stop offset="0%" style="stop-color:#f97316;stop-opacity:1"/><stop offset="100%" style="stop-color:#fb923c;stop-opacity:1"/></linearGradient><filter id="shadow" width="140%" height="140%" x="-20%" y="-20%"><feDropShadow dx="0" dy="2" flood-opacity=".15" stdDeviation="3"/></filter></defs><rect width="400" height="56" x="100" y="10" fill="url(#grad1)" filter="url(#shadow)" rx="8"/><text x="300" y="32" fill="#fff" font-family="system-ui, -apple-system, sans-serif" font-size="14" font-weight="600" text-anchor="middle">Executive Policy</text><text x="300" y="50" fill="rgba(255,255,255,0.85)" font-family="system-ui, -apple-system, sans-serif" font-size="12" text-anchor="middle">EOs, national strategies</text><path fill="none" stroke="#6366f1" stroke-width="2" d="M300 66 L300 84 L292 76 M300 84 L308 76"/><rect width="400" height="56" x="100" y="88" fill="url(#grad2)" filter="url(#shadow)" rx="8"/><text x="300" y="110" fill="#fff" font-family="system-ui, -apple-system, sans-serif" font-size="14" font-weight="600" text-anchor="middle">Agency Guidance</text><text x="300" y="128" fill="rgba(255,255,255,0.85)" font-family="system-ui, -apple-system, sans-serif" font-size="12" text-anchor="middle">OMB memos, regulator statements</text><path fill="none" stroke="#8b5cf6" stroke-width="2" d="M300 144 L300 162 L292 154 M300 162 L308 154"/><rect width="400" height="56" x="100" y="166" fill="url(#grad3)" filter="url(#shadow)" rx="8"/><text x="300" y="188" fill="#fff" font-family="system-ui, -apple-system, sans-serif" font-size="14" font-weight="600" text-anchor="middle">Procurement Requirements</text><text x="300" y="206" fill="rgba(255,255,255,0.85)" font-family="system-ui, -apple-system, sans-serif" font-size="12" text-anchor="middle">RFP language, vendor questionnaires</text><path fill="none" stroke="#a78bfa" stroke-width="2" d="M300 222 L300 240 L292 232 M300 240 L308 232"/><rect width="400" height="56" x="100" y="244" fill="url(#grad4)" filter="url(#shadow)" rx="8"/><text x="300" y="266" fill="#5b21b6" font-family="system-ui, -apple-system, sans-serif" font-size="14" font-weight="600" text-anchor="middle">Contract Clauses</text><text x="300" y="284" fill="#7c3aed" font-family="system-ui, -apple-system, sans-serif" font-size="12" text-anchor="middle">Warranties, reporting, audit rights</text><path fill="none" stroke="#c4b5fd" stroke-width="2" d="M300 300 L300 318 L292 310 M300 318 L308 310"/><rect width="400" height="56" x="100" y="322" fill="url(#grad5)" filter="url(#shadow)" rx="8"/><text x="300" y="344" fill="#fff" font-family="system-ui, -apple-system, sans-serif" font-size="14" font-weight="600" text-anchor="middle">Evidence</text><text x="300" y="362" fill="rgba(255,255,255,0.85)" font-family="system-ui, -apple-system, sans-serif" font-size="12" text-anchor="middle">Eval reports, incident logs, documentation</text><circle cx="520" cy="350" r="4" fill="#f97316"/><text x="532" y="354" fill="#f97316" font-family="system-ui, -apple-system, sans-serif" font-size="11" font-weight="500">You are here</text></svg>