<svg xmlns="http://www.w3.org/2000/svg" viewBox="0 0 820 300"><defs><linearGradient id="trackGrad" x1="0%" x2="100%" y1="0%" y2="0%"><stop offset="0%" style="stop-color:#6366f1"/><stop offset="50%" style="stop-color:#a855f7"/><stop offset="100%" style="stop-color:#f97316"/></linearGradient></defs><text x="410" y="28" fill="#1f2937" font-family="system-ui, -apple-system, sans-serif" font-size="17" font-weight="700" text-anchor="middle">2026 AI Regulation Timeline</text><rect width="720" height="5" x="50" y="138" fill="#e5e7eb" rx="2.5"/><rect width="720" height="5" x="50" y="138" fill="url(#trackGrad)" opacity=".6" rx="2.5"/><text x="140" y="270" fill="#9ca3af" font-family="system-ui, -apple-system, sans-serif" font-size="12" font-weight="600" text-anchor="middle">Q1</text><text x="320" y="270" fill="#9ca3af" font-family="system-ui, -apple-system, sans-serif" font-size="12" font-weight="600" text-anchor="middle">Q2</text><text x="500" y="270" fill="#9ca3af" font-family="system-ui, -apple-system, sans-serif" font-size="12" font-weight="600" text-anchor="middle">Q3</text><text x="680" y="270" fill="#9ca3af" font-family="system-ui, -apple-system, sans-serif" font-size="12" font-weight="600" text-anchor="middle">Q4</text><line x1="230" x2="230" y1="133" y2="148" stroke="#d1d5db" stroke-width="1"/><line x1="410" x2="410" y1="133" y2="148" stroke="#d1d5db" stroke-width="1"/><line x1="590" x2="590" y1="133" y2="148" stroke="#d1d5db" stroke-width="1"/><g font-family="system-ui, -apple-system, sans-serif"><circle cx="70" cy="140" r="7" fill="#6366f1"/><circle cx="70" cy="140" r="3" fill="#fff"/><line x1="70" x2="70" y1="147" y2="175" stroke="#6366f1" stroke-width="1.5" opacity=".5"/><text x="70" y="192" fill="#6366f1" font-size="12" font-weight="700" text-anchor="middle">Jan 1</text><text x="70" y="208" fill="#4b5563" font-size="10" text-anchor="middle">CA AB 2013</text><text x="70" y="222" fill="#4b5563" font-size="10" text-anchor="middle">TX HB 149</text><circle cx="115" cy="140" r="7" fill="#7c3aed"/><circle cx="115" cy="140" r="3" fill="#fff"/><line x1="115" x2="115" y1="133" y2="105" stroke="#7c3aed" stroke-width="1.5" opacity=".5"/><text x="115" y="92" fill="#7c3aed" font-size="12" font-weight="700" text-anchor="middle">~Jan 10</text><text x="115" y="76" fill="#4b5563" font-size="10" text-anchor="middle">DOJ Task Force</text><circle cx="185" cy="140" r="7" fill="#8b5cf6"/><circle cx="185" cy="140" r="3" fill="#fff"/><line x1="185" x2="185" y1="147" y2="175" stroke="#8b5cf6" stroke-width="1.5" opacity=".5"/><text x="185" y="192" fill="#8b5cf6" font-size="12" font-weight="700" text-anchor="middle">Mar 11</text><text x="185" y="208" fill="#4b5563" font-size="10" text-anchor="middle">M-26-04, FTC</text><text x="185" y="222" fill="#4b5563" font-size="10" text-anchor="middle">Commerce eval</text><circle cx="285" cy="140" r="7" fill="#9333ea"/><circle cx="285" cy="140" r="3" fill="#fff"/><line x1="285" x2="285" y1="133" y2="105" stroke="#9333ea" stroke-width="1.5" opacity=".5"/><text x="285" y="92" fill="#9333ea" font-size="12" font-weight="700" text-anchor="middle">May 19</text><text x="285" y="76" fill="#4b5563" font-size="10" text-anchor="middle">TAKE IT DOWN</text><circle cx="345" cy="140" r="7" fill="#a855f7"/><circle cx="345" cy="140" r="3" fill="#fff"/><line x1="345" x2="345" y1="133" y2="105" stroke="#a855f7" stroke-width="1.5" opacity=".5"/><text x="345" y="92" fill="#a855f7" font-size="12" font-weight="700" text-anchor="middle">~Jun</text><text x="345" y="76" fill="#4b5563" font-size="10" text-anchor="middle">FCC proceeding</text><circle cx="395" cy="140" r="7" fill="#c026d3"/><circle cx="395" cy="140" r="3" fill="#fff"/><line x1="395" x2="395" y1="147" y2="175" stroke="#c026d3" stroke-width="1.5" opacity=".5"/><text x="395" y="192" fill="#c026d3" font-size="12" font-weight="700" text-anchor="middle">Jun 30</text><text x="395" y="208" fill="#4b5563" font-size="10" text-anchor="middle">CO SB24-205</text><circle cx="480" cy="140" r="7" fill="#ec4899"/><circle cx="480" cy="140" r="3" fill="#fff"/><line x1="480" x2="480" y1="133" y2="105" stroke="#ec4899" stroke-width="1.5" opacity=".5"/><text x="480" y="92" fill="#ec4899" font-size="12" font-weight="700" text-anchor="middle">Aug 2</text><text x="480" y="76" fill="#4b5563" font-size="10" text-anchor="middle">CA SB 942</text><circle cx="540" cy="140" r="7" fill="#f97316"/><circle cx="540" cy="140" r="3" fill="#fff"/><line x1="540" x2="540" y1="147" y2="175" stroke="#f97316" stroke-width="1.5" opacity=".5"/><text x="540" y="192" fill="#f97316" font-size="12" font-weight="700" text-anchor="middle">Aug</text><text x="540" y="208" fill="#4b5563" font-size="10" text-anchor="middle">EU AI Act</text><text x="540" y="222" fill="#6b7280" font-size="10" text-anchor="middle">(may slip)</text><line x1="560" x2="760" y1="140" y2="140" stroke="#f97316" stroke-dasharray="8 5" stroke-width="2" opacity=".35"/><path fill="none" stroke="#f97316" stroke-width="2" d="M760 135 L780 140 L760 145" opacity=".5"/><text x="680" y="170" fill="#d97706" font-size="10" font-weight="600" text-anchor="middle">Ongoing</text><text x="680" y="184" fill="#6b7280" font-size="9" text-anchor="middle">Preemption litigation</text></g></svg>