<svg xmlns="http://www.w3.org/2000/svg" viewBox="0 0 540 290"><defs><linearGradient id="critGrad" x1="0%" x2="100%" y1="0%" y2="0%"><stop offset="0%" style="stop-color:#dc2626"/><stop offset="100%" style="stop-color:#ef4444"/></linearGradient><linearGradient id="headerGrad" x1="0%" x2="100%" y1="0%" y2="0%"><stop offset="0%" style="stop-color:#1e293b"/><stop offset="100%" style="stop-color:#334155"/></linearGradient><filter id="cardShadow" width="108%" height="110%" x="-4%" y="-3%"><feDropShadow dx="0" dy="2" flood-opacity=".08" stdDeviation="6"/></filter><filter id="critShadow" width="108%" height="130%" x="-4%" y="-10%"><feDropShadow dx="0" dy="1" flood-color="#dc2626" flood-opacity=".2" stdDeviation="3"/></filter></defs><rect width="520" height="274" x="10" y="6" fill="#fff" stroke="#e2e8f0" stroke-width="1" filter="url(#cardShadow)" rx="10"/><rect width="520" height="38" x="10" y="6" fill="url(#headerGrad)" rx="10"/><rect width="520" height="14" x="10" y="30" fill="url(#headerGrad)"/><text x="30" y="31" fill="#fff" fill-opacity=".7" font-family="system-ui, -apple-system, sans-serif" font-size="12" font-weight="600" letter-spacing=".5">SCANNER</text><text x="516" y="31" fill="#fff" fill-opacity=".7" font-family="system-ui, -apple-system, sans-serif" font-size="12" font-weight="600" letter-spacing=".5" text-anchor="end">RESULT</text><g transform="translate(0, 50)"><rect width="520" height="36" x="10" y="0" fill="#fff"/><circle cx="30" cy="18" r="4" fill="#cbd5e1"/><text x="44" y="23" fill="#475569" font-family="system-ui, -apple-system, sans-serif" font-size="13" font-weight="500">VirusTotal</text><text x="516" y="23" fill="#b4bcc8" font-family="system-ui, -apple-system, sans-serif" font-size="11" font-style="italic" font-weight="400" text-anchor="end">Queued</text></g><g transform="translate(0, 86)"><rect width="520" height="36" x="10" y="0" fill="#fafbfc"/><circle cx="30" cy="18" r="4" fill="#cbd5e1"/><text x="44" y="23" fill="#475569" font-family="system-ui, -apple-system, sans-serif" font-size="13" font-weight="500">JFrog</text><rect width="148" height="22" x="370" y="8" fill="#f1f5f9" rx="11"/><text x="444" y="23" fill="#94a3b8" font-family="system-ui, -apple-system, sans-serif" font-size="11" font-weight="500" text-anchor="middle">No Issue</text></g><g transform="translate(0, 122)"><rect width="520" height="36" x="10" y="0" fill="#fff"/><circle cx="30" cy="18" r="4" fill="#cbd5e1"/><text x="44" y="23" fill="#475569" font-family="system-ui, -apple-system, sans-serif" font-size="13" font-weight="500">Protect AI (ModelScan)</text><rect width="148" height="22" x="370" y="8" fill="#f1f5f9" rx="11"/><text x="444" y="23" fill="#94a3b8" font-family="system-ui, -apple-system, sans-serif" font-size="11" font-weight="500" text-anchor="middle">No Issue</text></g><g transform="translate(0, 158)"><rect width="520" height="36" x="10" y="0" fill="#fafbfc"/><circle cx="30" cy="18" r="4" fill="#fbbf24"/><text x="44" y="23" fill="#475569" font-family="system-ui, -apple-system, sans-serif" font-size="13" font-weight="500">HF Picklescan</text><rect width="188" height="22" x="330" y="8" fill="#fef9c3" rx="11"/><text x="424" y="23" fill="#a16207" font-family="system-ui, -apple-system, sans-serif" font-size="11" font-weight="600" text-anchor="middle">Suspicious imports (info)</text></g><g transform="translate(0, 194)"><rect width="520" height="36" x="10" y="0" fill="#fff"/><circle cx="30" cy="18" r="4" fill="#fb923c"/><text x="44" y="23" fill="#475569" font-family="system-ui, -apple-system, sans-serif" font-size="13" font-weight="500">ClamAV</text><rect width="208" height="22" x="310" y="8" fill="#ffedd5" rx="11"/><text x="414" y="23" fill="#c2410c" font-family="system-ui, -apple-system, sans-serif" font-size="11" font-weight="600" text-anchor="middle">Suspicious (signature match)</text></g><line x1="26" x2="514" y1="234" y2="234" stroke="#e2e8f0" stroke-width="1"/><g transform="translate(0, 240)"><rect width="520" height="40" x="10" y="0" fill="#fef2f2" filter="url(#critShadow)" rx="0"/><rect width="520" height="10" x="10" y="30" fill="#fef2f2" rx="10"/><circle cx="30" cy="20" r="5" fill="url(#critGrad)"/><text x="46" y="25" fill="#1e293b" font-family="system-ui, -apple-system, sans-serif" font-size="14" font-weight="700">ModelAudit</text><rect width="128" height="24" x="390" y="9" fill="url(#critGrad)" rx="12"/><text x="454" y="25" fill="#fff" font-family="system-ui, -apple-system, sans-serif" font-size="12" font-weight="700" text-anchor="middle">CRITICAL</text></g></svg>